<?xml version="1.0" encoding="UTF-8"?>
<!DOCTYPE svg PUBLIC "-//W3C//DTD SVG 1.1//EN" "http://www.w3.org/Graphics/SVG/1.1/DTD/svg11.dtd">
<!-- Creator: CorelDRAW 2019 (64-Bit) -->
<svg xmlns="http://www.w3.org/2000/svg" xml:space="preserve" width="295.951mm" height="138.925mm" version="1.1" style="shape-rendering:geometricPrecision; text-rendering:geometricPrecision; image-rendering:optimizeQuality; fill-rule:evenodd; clip-rule:evenodd"
viewBox="0 0 29490.57 13843.4"
 xmlns:xlink="http://www.w3.org/1999/xlink"
 xmlns:xodm="http://www.corel.com/coreldraw/odm/2003">
 <defs>
  <style type="text/css">
   <![CDATA[
    .str2 {stroke:#E6E7E8;stroke-width:35.16;stroke-miterlimit:22.9256}
    .str0 {stroke:#B0FFB0;stroke-width:35.16;stroke-miterlimit:22.9256}
    .str1 {stroke:white;stroke-width:35.16;stroke-miterlimit:22.9256}
    .fil1 {fill:none}
    .fil0 {fill:#ADC9FF;fill-opacity:0.501961}
   ]]>
  </style>
 </defs>
 <g id="Capa_x0020_1">
  <metadata id="CorelCorpID_0Corel-Layer"/>
  <path class="fil0" d="M202 6882.6c-20,20.01 -52.43,20.01 -72.44,0 -20.02,-20.03 -20.02,-52.46 -0.01,-72.46 20,-20.01 52.45,-20.01 72.45,0 20.02,20.01 20.01,52.46 0,72.46zm244.43 -244.43c-20.01,20.02 -52.44,20.01 -72.46,0.01 -20.01,-20.02 -20.01,-52.45 0,-72.46 20.01,-20.02 52.45,-20.01 72.46,-0.01 20.02,20.01 20.02,52.45 0,72.46zm-261.13 -261.13c-20,20.02 -52.43,20.01 -72.46,0.01 -20.01,-20.02 -20.01,-52.46 0,-72.46 20.01,-20.01 52.46,-20 72.45,-0.01 20.02,20.02 20.03,52.46 0.01,72.46zm505.57 16.72c-20.01,20 -52.45,20 -72.46,-0.01 -20,-20.02 -20,-52.45 0,-72.46 20.01,-20.01 52.45,-20.01 72.46,0 20.02,20.02 20.01,52.46 0,72.47zm-261.14 -261.14c-20,20.02 -52.44,20.01 -72.44,0.01 -20.02,-20.03 -20.02,-52.46 0,-72.47 20,-20.01 52.44,-20 72.44,0 20.02,20.01 20.02,52.45 0,72.46zm-261.13 -261.12c-20,20 -52.44,19.99 -72.45,0 -20.02,-20.02 -20.01,-52.46 0,-72.46 20.01,-20.02 52.45,-20.01 72.45,-0.01 20.01,20.02 20.02,52.46 0,72.47zm766.7 277.84c-20,20.01 -52.44,20 -72.47,0 -20,-20.02 -20,-52.45 0,-72.46 20.03,-20.02 52.47,-20.01 72.47,0 20.01,20.02 20.01,52.45 0,72.46zm-261.13 -261.13c-20.01,20.01 -52.44,19.99 -72.47,-0.01 -20,-20.01 -20,-52.45 0,-72.44 20.02,-20.02 52.47,-20.01 72.47,-0.01 20.01,20.02 20.01,52.45 0,72.46zm-261.13 -261.13c-20.01,20.02 -52.43,20 -72.46,0 -20.01,-20.02 -20.01,-52.45 0,-72.45 20.01,-20.02 52.45,-20.01 72.46,-0.01 20.01,20.02 20.01,52.45 0,72.46zm-261.13 -261.13c-20,20 -52.43,20 -72.45,0 -20.01,-20.03 -20.01,-52.46 -0.01,-72.45 20.01,-20.02 52.45,-20.02 72.46,-0.01 20.01,20.02 20.01,52.46 0,72.46zm739.02 7582.97c-20,20.01 -52.44,20 -72.44,0 -20.03,-20.03 -20.02,-52.45 -0.01,-72.45 20,-20.02 52.44,-20.01 72.45,-0.02 20.02,20.03 20.02,52.47 0,72.47zm-261.12 -261.13c-20.01,20.02 -52.44,20.01 -72.46,0 -20.01,-20.02 -20.01,-52.45 -0.01,-72.46 20.01,-20.01 52.47,-20 72.45,0 20.02,20.02 20.03,52.45 0.02,72.46zm-261.14 -261.13c-20,20.01 -52.43,20.01 -72.44,0.01 -20.02,-20.05 -20.02,-52.47 -0.02,-72.47 20.01,-20 52.46,-20.01 72.46,0 20.02,20.03 20.01,52.47 0,72.46zm-261.12 -261.13c-20.01,20.01 -52.44,20.01 -72.46,0 -20.01,-20.02 -20.01,-52.44 -0.01,-72.46 20.02,-20 52.47,-20.02 72.47,-0.01 20.01,20.02 20.01,52.46 0,72.47zm1027.82 538.97c-20,20.02 -52.43,20.01 -72.45,0.01 -20.02,-20.04 -20.01,-52.45 0,-72.45 20.01,-20.02 52.45,-20.01 72.45,-0.02 20.02,20.02 20.02,52.46 0,72.46zm-261.13 -261.12c-19.99,20.02 -52.43,19.99 -72.45,-0.01 -20.01,-20.01 -20.01,-52.44 0.01,-72.45 19.99,-20.02 52.44,-20 72.45,-0.01 20.01,20.02 20.01,52.46 -0.01,72.47zm-261.12 -261.14c-20.01,20.03 -52.44,20.02 -72.46,-0.01 -20.01,-20.01 -20.01,-52.43 0,-72.44 20.01,-20.02 52.44,-20.01 72.45,0 20.02,20.01 20.01,52.46 0.01,72.45zm-261.13 -261.11c-20.01,19.99 -52.44,19.99 -72.45,-0.01 -20.01,-20.02 -20.01,-52.45 -0.01,-72.46 20.02,-20.01 52.46,-20 72.45,-0.01 20.01,20.02 20.03,52.47 0.01,72.48zm-261.13 -261.13c-20,20.01 -52.44,20 -72.45,-0.01 -20.01,-20.02 -20.01,-52.45 -0.02,-72.46 20.02,-20.01 52.47,-20.01 72.47,0 20.02,20.02 20.01,52.46 0,72.47zm1288.96 800.1c-20,20.01 -52.44,20.01 -72.46,0 -20.01,-20.04 -20.01,-52.46 0,-72.47 20.01,-20 52.46,-20 72.46,0 20.02,20.02 20.02,52.46 0,72.47zm-261.13 -261.13c-20,20.01 -52.44,20.01 -72.46,0 -20.01,-20.02 -20.01,-52.46 0,-72.46 20.01,-20.02 52.46,-20.01 72.46,-0.01 20.02,20.02 20.02,52.46 0,72.47zm-261.12 -261.13c-20.02,20 -52.44,20 -72.47,0 -20.01,-20.03 -20.01,-52.46 0,-72.46 20.01,-20.02 52.46,-20.01 72.46,-0.01 20.01,20.02 20.01,52.46 0.01,72.47zm-261.14 -261.13c-20,20.01 -52.43,20 -72.45,-0.01 -20.02,-20.02 -20.02,-52.44 -0.01,-72.45 20.01,-20.01 52.46,-20.01 72.46,-0.01 20.01,20.02 20.01,52.46 0,72.47zm-261.13 -261.14c-20,20.02 -52.43,20.01 -72.45,0 -20.02,-20.01 -20.02,-52.44 0.01,-72.46 19.99,-20 52.45,-19.99 72.44,0 20.02,20.02 20.01,52.46 0,72.46zm-261.13 -261.13c-20,20.02 -52.43,20.01 -72.45,0 -0.56,-0.57 -1.12,-1.13 -1.64,-1.71l0 -69.03 1.63 -1.72c20.02,-20.02 52.46,-19.99 72.46,0 20.02,20.02 20.01,52.43 0,72.46zm1550.1 1061.24c-20.01,20.03 -52.44,20.01 -72.45,0.01 -20.01,-20.01 -20.01,-52.44 -0.01,-72.45 20.02,-20.01 52.47,-20.03 72.47,-0.02 20,20.02 20.02,52.47 -0.01,72.46zm-261.11 -261.13c-20.02,20.02 -52.46,20.02 -72.46,0 -20.02,-20.01 -20.02,-52.44 -0.02,-72.45 20.02,-20.01 52.46,-20 72.47,-0.02 20.02,20.02 20.01,52.47 0.01,72.47zm-261.16 -261.12c-19.99,20.01 -52.43,20.01 -72.44,0 -20.01,-20.02 -20.01,-52.45 0,-72.46 20.01,-20.01 52.45,-20 72.45,0 20.02,20.01 20.02,52.46 -0.01,72.46zm-261.12 -261.13c-20,20.02 -52.44,20 -72.45,0 -20.01,-20.02 -20.01,-52.44 0,-72.45 20.01,-20.02 52.44,-20.01 72.46,-0.01 20.01,20.02 20,52.46 -0.01,72.46zm-261.12 -261.11c-20.02,20 -52.45,20 -72.46,-0.02 -20.02,-20.02 -20.01,-52.45 0,-72.45 20.01,-20.01 52.46,-20.01 72.45,0 20.03,20.01 20.02,52.45 0.01,72.47zm-261.14 -261.14c-19.99,19.99 -52.43,20 -72.45,0 -20.01,-20.03 -20.01,-52.47 -0.01,-72.46 20.02,-20 52.47,-20.01 72.46,0 20.03,20.02 20.02,52.46 0,72.46zm-261.12 -261.14c-15.52,15.52 -38.51,19 -57.4,10.44l0 -93.35c18.88,-8.56 41.89,-5.08 57.4,10.44 20.01,20.01 20.02,52.46 0,72.46zm1811.22 1322.37c-19.99,20.02 -52.43,20.02 -72.45,0 -20.01,-20.01 -20.01,-52.44 -0.01,-72.45 20.02,-20.01 52.47,-20 72.46,-0.01 20.02,20.01 20.02,52.47 0,72.46zm-261.12 -261.12c-20.01,20.01 -52.45,20.01 -72.46,-0.01 -20.01,-20.02 -20,-52.45 -0.01,-72.45 20.02,-20.01 52.46,-20.01 72.47,0 20.01,20.02 20.01,52.46 0,72.46zm-261.13 -261.13c-20.01,20.01 -52.44,20.01 -72.47,0 -20,-20.02 -19.99,-52.44 0,-72.45 20.02,-20.02 52.46,-20.02 72.47,-0.02 20.01,20.02 20.01,52.47 0,72.47zm-261.13 -261.13c-20.01,20.01 -52.44,20.01 -72.46,0 -20.01,-20.02 -20.01,-52.45 0,-72.45 20.01,-20.01 52.45,-20.01 72.46,-0.02 20.01,20.02 20.01,52.46 0,72.47zm-261.13 -261.12c-20.01,20 -52.44,20.01 -72.46,-0.01 -20.01,-20.02 -20.01,-52.45 0,-72.46 20.01,-20.01 52.45,-20 72.46,0 20.01,20.02 20.01,52.45 0,72.47zm-261.13 -261.13c-20.01,20.01 -52.44,20 -72.45,0 -20.02,-20.02 -20.02,-52.45 -0.01,-72.47 20,-20.02 52.45,-20.01 72.46,0 20.02,20.02 20.01,52.45 0,72.47zm-261.14 -261.13c-19.99,20 -52.43,20 -72.45,0 -20,-20.02 -20,-52.46 0,-72.46 20.02,-20 52.46,-20 72.45,-0.02 20.02,20.02 20.02,52.47 0,72.48zm-261.12 -261.14c-11.13,11.14 -26.13,16.07 -40.69,14.81l0 -102.07c14.56,-1.27 29.56,3.67 40.69,14.81 20.02,20.01 20.02,52.45 0,72.45zm2072.36 1583.51c-20,20.03 -52.43,20.01 -72.45,0.01 -20.02,-20.02 -20.03,-52.45 -0.01,-72.46 20,-20.01 52.46,-20.02 72.45,-0.01 20.02,20.03 20.02,52.47 0.01,72.46zm-261.13 -261.13c-20.01,20.01 -52.44,20.01 -72.45,0 -20.01,-20.01 -20.02,-52.45 -0.01,-72.45 20.01,-20.01 52.47,-20 72.47,0 20.02,20.01 19.99,52.45 -0.01,72.45zm-261.13 -261.13c-20,20.03 -52.44,20.01 -72.45,0 -20.01,-20.01 -20.01,-52.44 -0.01,-72.45 20.02,-20.02 52.46,-20 72.46,-0.01 20.02,20.02 20.02,52.45 0,72.46zm-261.13 -261.12c-20,20.01 -52.44,20 -72.45,0 -20.01,-20.03 -20.01,-52.45 0,-72.46 20,-20 52.45,-20 72.45,0 20.02,20.01 20.02,52.45 0,72.46zm-261.13 -261.13c-19.99,20.01 -52.44,20.01 -72.45,0 -20.01,-20.03 -20.01,-52.46 0,-72.46 20,-20.01 52.45,-20.01 72.45,-0.01 20.02,20.02 20.02,52.46 0,72.47zm-261.13 -261.13c-20.01,20.01 -52.44,20.01 -72.46,-0.01 -20,-20.02 -20.01,-52.45 0,-72.45 20.01,-20.01 52.46,-20.01 72.45,0 20.03,20.01 20.02,52.46 0.01,72.46zm-261.13 -261.13c-19.99,20.01 -52.43,20.01 -72.45,0 -20.01,-20.02 -20.02,-52.45 -0.01,-72.46 20.01,-20.01 52.47,-20.01 72.46,0 20.02,20.01 20.02,52.46 0,72.46zm-261.12 -261.13c-20.01,20.01 -52.44,20.01 -72.46,0 -20.01,-20.02 -20,-52.45 -0.01,-72.46 20.01,-20.01 52.46,-20 72.47,-0.01 20.01,20.02 20.01,52.46 0,72.47zm-261.13 -261.13c-6.87,6.87 -15.2,11.38 -23.98,13.53l0 -99.53c8.79,2.15 17.12,6.67 23.98,13.53 20.01,20.01 20.01,52.44 0,72.46zm2333.49 1844.64c-20,20.02 -52.45,20 -72.45,0 -20.02,-20.02 -20.02,-52.45 -0.01,-72.46 20.01,-20.01 52.46,-20 72.46,0 20.02,20.01 20.02,52.46 0,72.46zm-261.13 -261.12c-20,20.01 -52.43,20.01 -72.45,-0.01 -20.02,-20.02 -20.02,-52.45 -0.01,-72.46 20.01,-20 52.46,-20 72.46,0 20.01,20.02 20.02,52.46 0,72.47zm-261.13 -261.13c-20,20 -52.43,20 -72.45,0 -20.01,-20.04 -20.01,-52.47 -0.01,-72.47 20.01,-20 52.46,-20.01 72.46,0 20.02,20.02 20.01,52.46 0,72.47zm-261.13 -261.13c-20,20 -52.43,19.99 -72.45,0 -20.01,-20.02 -20.01,-52.45 -0.01,-72.46 20.02,-20.01 52.46,-20.01 72.46,-0.01 20.03,20.02 20.02,52.45 0,72.47zm-261.13 -261.14c-20,20.01 -52.43,20.01 -72.45,0 -20.01,-20.01 -20.01,-52.46 -0.02,-72.46 20.03,-20.01 52.46,-20 72.47,0 20.02,20.02 20.02,52.46 0,72.46zm-261.13 -261.13c-20,20.02 -52.44,20.01 -72.45,0 -20,-20.02 -20.01,-52.45 0,-72.45 20.02,-20.02 52.44,-20.01 72.45,-0.01 20.01,20.02 20.03,52.46 0,72.46zm-261.13 -261.13c-20,20.02 -52.42,20.01 -72.44,0 -20.02,-20.01 -20.02,-52.44 -0.01,-72.45 20.01,-20.01 52.44,-20 72.45,-0.01 20.03,20.03 20.02,52.46 0,72.46zm-261.13 -261.12c-20,20 -52.42,20.01 -72.44,-0.01 -20.02,-20.01 -20.02,-52.44 -0.01,-72.45 20.01,-20.01 52.46,-20 72.45,-0.01 20.03,20.03 20.02,52.45 0,72.47zm-261.13 -261.13c-19.99,19.99 -52.43,20 -72.44,0 -20.01,-20.03 -20.01,-52.47 -0.02,-72.46 20.02,-20 52.47,-20 72.46,0 20.02,20.02 20.02,52.46 0,72.46zm-261.12 -261.13c-2.28,2.28 -4.71,4.28 -7.27,6.04l0 -84.55c2.56,1.76 4.99,3.77 7.27,6.05 20.02,20.01 20.02,52.45 0,72.46zm2594.62 2105.77c-20,20.02 -52.44,20.02 -72.45,0.01 -20.01,-20.02 -20.01,-52.45 0.01,-72.45 20,-20.02 52.44,-20.02 72.44,-0.02 20.02,20.01 20.02,52.46 0,72.46zm-261.14 -261.13c-19.99,20.02 -52.42,20.02 -72.44,0.01 -20.01,-20.02 -20.01,-52.45 0,-72.46 20.01,-20.01 52.46,-20 72.45,0 20.02,20.02 20.02,52.45 -0.01,72.45zm-261.12 -261.13c-20,20.03 -52.43,20.01 -72.45,0.01 -20.01,-20.01 -20.01,-52.44 0,-72.46 20.01,-20.01 52.45,-20.01 72.45,0.01 20.02,20.01 20.02,52.43 0,72.44zm-261.13 -261.13c-19.99,20.02 -52.43,20.01 -72.45,0 -20.01,-20.01 -20.01,-52.43 0,-72.44 20.02,-20.02 52.46,-20.01 72.45,-0.02 20.02,20.02 20.03,52.46 0,72.46zm-261.12 -261.11c-20,20 -52.44,20 -72.46,-0.01 -20.01,-20.02 -20,-52.45 0,-72.45 20.01,-20.02 52.46,-20.01 72.46,0 20.02,20.01 20.02,52.44 0,72.46zm-261.13 -261.14c-20,20.01 -52.45,20.02 -72.46,0 -19.99,-20.02 -20.01,-52.45 0,-72.46 20.01,-20 52.46,-20 72.46,0 20.01,20.01 20.01,52.46 0,72.46zm-261.13 -261.13c-20,20.02 -52.45,20.02 -72.46,0.01 -20.01,-20.03 -20.01,-52.46 0,-72.47 20.01,-20.01 52.46,-20 72.46,0 20.01,20.01 20.01,52.45 0,72.46zm-261.13 -261.12c-20,20 -52.43,20.01 -72.46,0 -20.01,-20.03 -20.01,-52.46 0,-72.47 20.01,-20 52.46,-20 72.46,0 20.01,20.02 20.01,52.46 0,72.47zm-261.14 -261.13c-20,20.02 -52.42,20 -72.44,0 -20.02,-20.02 -20.02,-52.44 -0.01,-72.47 20.01,-20.01 52.45,-20.01 72.46,0 20.01,20.02 20.01,52.45 -0.01,72.47zm-261.12 -261.14c-20,20.02 -52.43,20.02 -72.45,0.01 -20.01,-20.03 -20.01,-52.46 -0.01,-72.46 20.02,-20.02 52.47,-20 72.46,-0.01 20.01,20.01 20.01,52.46 0,72.46zm-251.7 -320.63c7.42,14.58 7.42,31.97 0,46.55l0 -46.55zm2846.33 2426.42c-20.01,20.01 -52.44,20 -72.46,0.01 -20.01,-20.04 -20.01,-52.46 0,-72.47 20.02,-20.02 52.45,-20.01 72.46,0 20.01,20.01 20.01,52.45 0,72.46zm-261.13 -261.13c-20.01,20.01 -52.44,20 -72.46,0 -20,-20.03 -20.01,-52.46 0,-72.47 20.01,-20 52.45,-20 72.46,0.01 20.01,20.01 20.01,52.45 0,72.46zm-261.14 -261.13c-20,19.99 -52.42,20.01 -72.45,-0.02 -20.02,-20.01 -20.01,-52.43 0,-72.44 20.01,-20.01 52.45,-19.99 72.45,0 20.02,20.01 20.02,52.45 0,72.46zm-261.13 -261.13c-19.99,20.01 -52.43,20.01 -72.45,-0.01 -20,-20.01 -20,-52.45 0,-72.45 20.01,-20.01 52.45,-19.99 72.46,0 20.02,20.02 20.01,52.45 -0.01,72.46zm-261.12 -261.13c-20.01,20.02 -52.44,20.01 -72.46,0 -20,-20.01 -20,-52.46 0,-72.46 20.01,-20.01 52.46,-20 72.46,0 20.01,20.03 20,52.45 0,72.46zm-261.12 -261.13c-20.01,20.01 -52.45,20.01 -72.46,0 -20.01,-20.02 -20.01,-52.46 -0.01,-72.47 20.02,-20.01 52.46,-19.99 72.45,0 20.03,20.02 20.03,52.45 0.02,72.47zm-261.14 -261.13c-20,20.01 -52.44,20 -72.45,0 -20.01,-20.02 -20.02,-52.45 0,-72.46 20.01,-20.02 52.45,-20 72.45,0 20.02,20.02 20.02,52.45 0,72.46zm-261.13 -261.13c-20,20.01 -52.42,20.01 -72.45,0 -20.01,-20.01 -20.01,-52.45 0,-72.46 20,-20.01 52.45,-20 72.45,0 20.02,20.02 20.02,52.45 0,72.46zm-261.13 -261.13c-20,20.01 -52.43,20.01 -72.45,-0.01 -20.01,-20.01 -20.01,-52.45 0,-72.44 20,-20.02 52.45,-20.01 72.45,-0.01 20.01,20.02 20.01,52.46 0,72.46zm-261.14 -261.14c-19.98,20.04 -52.43,20.02 -72.44,0.01 -20.01,-20.01 -20.01,-52.44 0,-72.45 20,-20.01 52.45,-20.01 72.44,0 20.03,20.01 20.03,52.44 0,72.44zm-261.11 -261.12c-20,20.02 -52.44,20.01 -72.46,0 -20.01,-20.02 -20,-52.44 0,-72.45 20,-20.01 52.46,-20.01 72.46,-0.01 20.01,20.02 20.01,52.46 0,72.46zm2855.76 2366.91c-20.01,20.01 -52.44,20.01 -72.45,0 -20.01,-20.01 -20.01,-52.44 -0.01,-72.45 20.02,-20.01 52.46,-20.01 72.46,-0.01 20.02,20.02 20.02,52.45 0,72.46zm-261.13 -261.13c-20,20.01 -52.43,20.01 -72.45,0 -20.01,-20.03 -20.01,-52.46 -0.01,-72.45 20.01,-20.02 52.46,-20.01 72.46,-0.01 20.02,20.02 20.02,52.45 0,72.46zm-261.13 -261.13c-20.01,20.03 -52.44,20.01 -72.45,0.01 -20.01,-20.03 -20.01,-52.46 0,-72.46 20.01,-20.03 52.45,-20.01 72.45,-0.01 20.02,20.02 20.02,52.45 0,72.46zm-261.13 -261.13c-20,20.02 -52.44,20 -72.45,0 -20.01,-20.01 -20.02,-52.44 0,-72.44 20,-20.01 52.45,-20.02 72.45,-0.02 20.02,20.02 20.02,52.46 0,72.46zm-261.13 -261.11c-20,20 -52.43,20 -72.45,-0.02 -20.01,-20.01 -20.01,-52.44 -0.01,-72.45 20.02,-20 52.46,-20 72.46,0 20.02,20.01 20.01,52.45 0,72.47zm-261.14 -261.14c-19.99,19.99 -52.42,20 -72.44,0 -20.01,-20.04 -20.01,-52.47 -0.01,-72.46 20.01,-20.01 52.47,-20.01 72.46,0 20.02,20.01 20.02,52.46 -0.01,72.46zm-261.11 -261.13c-20,20.02 -52.44,20 -72.46,0 -20.01,-20.01 -20.01,-52.45 -0.01,-72.46 20.02,-20.01 52.46,-20.01 72.47,0 20.01,20.01 20.01,52.45 0,72.46zm-261.13 -261.13c-20.01,20.01 -52.44,20 -72.46,0 -20,-20.03 -20.01,-52.45 -0.01,-72.46 20.02,-20.01 52.46,-20.01 72.47,0 20.01,20.01 20.01,52.45 0,72.46zm-261.13 -261.13c-20.01,20.01 -52.44,20.01 -72.46,0.01 -20.01,-20.04 -20.02,-52.46 0,-72.47 20.01,-20.01 52.45,-20.01 72.46,0 20,20.01 20.01,52.45 0,72.46zm-261.14 -261.13c-20,20.01 -52.42,20 -72.44,0 -20.02,-20.02 -20.02,-52.45 -0.01,-72.46 20.01,-20.01 52.45,-20 72.45,0 20.02,20.01 20.02,52.46 0,72.46zm-261.13 -261.13c-20,20.01 -52.42,20.01 -72.44,0 -20.01,-20.03 -20.02,-52.45 -0.01,-72.46 20,-20.01 52.45,-20 72.45,0 20.02,20.02 20.02,52.45 0,72.46zm-261.13 -261.13c-19.99,20 -52.43,20.01 -72.44,0 -20.01,-20.03 -20.01,-52.46 -0.02,-72.46 20.02,-20 52.47,-20 72.47,0.02 20.01,20 20.02,52.44 -0.01,72.44zm3116.91 2628.02c-20.01,20.03 -52.44,20.02 -72.46,0.02 -20.02,-20.02 -20.01,-52.46 -0.01,-72.46 20.02,-20.01 52.46,-20 72.46,-0.01 20.01,20.01 20.02,52.46 0.01,72.45zm-261.14 -261.1c-20,20 -52.43,20 -72.45,-0.01 -20.01,-20.02 -20.01,-52.45 -0.01,-72.46 20.02,-20.01 52.46,-20.01 72.46,0 20.02,20.02 20.02,52.45 0,72.47zm-261.13 -261.14c-20,20.01 -52.43,20.01 -72.46,-0.01 -20,-20.02 -20,-52.44 0.01,-72.45 20.01,-20.01 52.45,-20.01 72.45,0 20.02,20.01 20.02,52.46 0,72.46zm-261.13 -261.13c-20.01,20.01 -52.43,20.02 -72.44,0.01 -20.02,-20.03 -20.02,-52.45 -0.01,-72.46 20.01,-20.02 52.45,-20.02 72.45,-0.01 20.02,20.01 20.02,52.46 0,72.46zm-261.13 -261.12c-20,20 -52.43,20 -72.44,0 -20.02,-20.03 -20.02,-52.46 -0.01,-72.47 20.01,-20 52.45,-20 72.45,0 20.02,20.03 20.01,52.46 0,72.47zm-261.13 -261.14c-19.99,20.02 -52.43,20.01 -72.44,0 -20.02,-20.01 -20.02,-52.44 -0.01,-72.46 20,-20.01 52.45,-20.01 72.45,0 20.02,20.02 20.02,52.45 0,72.46zm-261.12 -261.13c-19.99,20.01 -52.44,20.01 -72.45,0 -20.01,-20.01 -20.01,-52.45 -0.01,-72.44 20.01,-20.03 52.46,-20.01 72.46,-0.03 20.02,20.02 20.02,52.47 0,72.47zm-261.13 -261.12c-20,20 -52.44,20 -72.45,-0.01 -20.01,-20.02 -20.01,-52.45 -0.01,-72.45 20.01,-20.02 52.46,-20.01 72.46,0 20.02,20.02 20.02,52.44 0,72.46zm-261.13 -261.14c-20,20.02 -52.44,20.01 -72.46,0.01 -20,-20.03 -20,-52.46 0,-72.48 20.01,-19.99 52.46,-19.99 72.46,0.01 20.02,20.02 20.02,52.46 0,72.46zm-261.13 -261.13c-20,20.03 -52.44,20.02 -72.45,0.01 -20.02,-20.02 -20.02,-52.45 -0.01,-72.46 20.01,-20.01 52.46,-20 72.46,-0.01 20.02,20.02 20.02,52.46 0,72.46zm-261.13 -261.12c-20,20 -52.43,20 -72.45,-0.01 -20.02,-20.03 -20.02,-52.44 -0.01,-72.45 20.01,-20.01 52.46,-20 72.46,0 20.02,20.01 20.02,52.46 0,72.46zm-261.13 -261.12c-20,20.01 -52.42,19.99 -72.44,-0.01 -20.03,-20.02 -20.03,-52.45 -0.02,-72.46 20.01,-20.02 52.46,-20.02 72.46,0 20.02,20.01 20.02,52.44 0,72.47zm-261.12 -261.15c-20.01,20.02 -52.44,20.02 -72.45,0.01 -20.02,-20.02 -20.02,-52.46 -0.02,-72.46 20.02,-20.01 52.46,-20 72.47,-0.02 20,20.02 20.01,52.48 0,72.47zm3378.02 2889.19c-19.99,20 -52.43,20 -72.45,0 -20,-20.03 -20.01,-52.47 0,-72.47 20.01,-20.01 52.45,-20 72.45,0.01 20.02,20.02 20.03,52.46 0,72.46zm-261.13 -261.13c-19.99,20 -52.43,20 -72.45,-0.01 -20.01,-20.02 -20,-52.45 0,-72.45 20.01,-20.01 52.46,-20.01 72.45,0 20.02,20.02 20.02,52.45 0,72.46zm-261.12 -261.14c-20,20.02 -52.44,20.01 -72.46,0 -20.01,-20.01 -20.01,-52.44 0,-72.44 20.01,-20.02 52.46,-20.02 72.46,-0.02 20.02,20.03 20.02,52.46 0,72.46zm-261.13 -261.12c-20,20.01 -52.44,20 -72.46,0 -20.01,-20.02 -20.01,-52.46 0.01,-72.45 20,-20.02 52.45,-20.01 72.45,-0.01 20.02,20.01 20.02,52.45 0,72.46zm-261.13 -261.13c-20,20.01 -52.43,20 -72.46,0 -20.01,-20.02 -20.01,-52.45 0,-72.48 20.01,-19.98 52.46,-19.98 72.46,0.02 20.01,20.02 20.01,52.44 0,72.46zm-261.13 -261.13c-20,20 -52.43,20 -72.45,-0.01 -20.02,-20.02 -20.02,-52.45 -0.01,-72.44 20,-20.02 52.46,-20.01 72.46,-0.01 20.01,20.02 20.01,52.45 0,72.46zm-261.14 -261.12c-19.99,20.01 -52.42,20 -72.44,-0.01 -20.01,-20.02 -20.01,-52.45 -0.01,-72.46 20.01,-20 52.45,-20 72.46,0.01 20.01,20.01 20.01,52.45 -0.01,72.46zm-261.12 -261.13c-20,20.01 -52.43,20.01 -72.47,-0.01 -19.99,-20.01 -19.99,-52.45 0.01,-72.46 20.01,-20 52.46,-20 72.46,0 20.02,20.02 20,52.46 0,72.47zm-261.13 -261.14c-20,20.02 -52.43,20.01 -72.44,0 -20.04,-20.02 -20.02,-52.45 -0.02,-72.45 20.02,-20.01 52.46,-20.01 72.46,-0.01 20.02,20.01 20.02,52.46 0,72.46zm-261.13 -261.12c-20,20.01 -52.43,20 -72.45,0 -20.01,-20.02 -20.01,-52.46 0.01,-72.47 20,-20.01 52.44,-20.01 72.44,0.01 20.02,20.01 20.02,52.45 0,72.46zm-261.13 -261.14c-20,20.02 -52.43,20.01 -72.45,0 -20.01,-20.02 -20.01,-52.45 0,-72.46 20,-20.01 52.45,-20.01 72.45,0 20.02,20.01 20.02,52.46 0,72.46zm-261.13 -261.12c-20,20 -52.43,20.01 -72.45,-0.02 -20.01,-20.02 -20.01,-52.44 0,-72.44 20,-20.02 52.45,-20 72.45,-0.01 20.02,20.02 20.01,52.46 0,72.47zm-261.13 -261.13c-19.99,20.01 -52.43,20 -72.45,0 -20,-20.02 -20,-52.45 -0.01,-72.47 20.02,-20 52.47,-19.99 72.45,0.01 20.03,20.02 20.04,52.45 0.01,72.46zm3378.03 2889.17c-19.99,20.02 -52.42,20 -72.44,0.01 -20.02,-20.02 -20.02,-52.45 -0.01,-72.47 20.01,-20 52.45,-20 72.46,0 20.01,20.02 20.02,52.46 -0.01,72.46zm-261.12 -261.13c-20.01,20.02 -52.42,20 -72.45,-0.01 -20.02,-20.01 -20.02,-52.43 -0.01,-72.44 20.01,-20.01 52.46,-20.01 72.46,-0.01 20.01,20.02 20.01,52.46 0,72.46zm-261.13 -261.13c-19.99,20.01 -52.43,20.01 -72.45,0 -20.01,-20.03 -20.01,-52.45 -0.02,-72.45 20.02,-20.02 52.47,-20.01 72.47,-0.01 20.02,20.02 20.01,52.45 0,72.46zm-261.12 -261.12c-20.01,20.01 -52.45,20 -72.46,0 -20.01,-20.03 -20.01,-52.45 -0.01,-72.46 20.02,-20.01 52.46,-20.01 72.47,-0.01 20.01,20.02 20.01,52.46 0,72.47zm-261.14 -261.13c-20,20.01 -52.44,20.01 -72.45,0 -20.02,-20.02 -20.01,-52.46 -0.01,-72.46 20.02,-20.01 52.46,-20.01 72.46,-0.01 20.02,20.02 20.02,52.46 0,72.47zm-261.13 -261.13c-20,20.01 -52.44,20 -72.45,0 -20.02,-20.03 -20.01,-52.46 0,-72.46 20.01,-20.02 52.45,-20.01 72.45,-0.01 20.02,20.02 20.02,52.46 0,72.47zm-261.12 -261.12c-20.01,20 -52.44,20 -72.46,-0.01 -20.01,-20.02 -20.01,-52.46 0,-72.46 20.01,-20 52.45,-20.01 72.45,-0.01 20.02,20.02 20.02,52.46 0.01,72.48zm-261.14 -261.14c-20,20 -52.43,20.01 -72.45,0 -20.01,-20.02 -20.01,-52.44 0,-72.46 20.01,-20.02 52.46,-20 72.45,0 20.02,20.02 20.02,52.45 0,72.46zm-261.13 -261.13c-19.99,20 -52.43,20 -72.45,0 -20.01,-20.04 -20.01,-52.47 -0.01,-72.46 20.02,-20.02 52.47,-20 72.46,0 20.02,20.02 20.02,52.46 0,72.46zm-261.12 -261.13c-20,20.01 -52.44,20 -72.46,0 -20.01,-20.03 -20,-52.45 0,-72.45 20.01,-20.02 52.46,-20.01 72.46,-0.01 20.01,20.02 20.01,52.45 0,72.46zm-261.13 -261.13c-20,20.01 -52.43,20.01 -72.46,-0.01 -20.01,-20.01 -20.01,-52.44 0,-72.44 20.02,-20.02 52.46,-20.01 72.46,-0.01 20.01,20.02 20.01,52.45 0,72.46zm-261.13 -261.13c-20.01,20.02 -52.44,20.01 -72.46,0.01 -20.01,-20.02 -20.01,-52.46 0,-72.46 20.01,-20.02 52.45,-20.01 72.46,-0.02 20.01,20.03 20.01,52.46 0,72.47zm-261.14 -261.13c-20,20.02 -52.42,20 -72.44,0 -20.02,-20.01 -20.02,-52.44 -0.01,-72.45 20.01,-20.01 52.46,-20.01 72.45,-0.01 20.02,20 20.02,52.46 0,72.46zm3378.04 2889.18c-20,20.01 -52.44,20 -72.45,0 -20.01,-20.02 -20.01,-52.45 0,-72.45 20.01,-20.02 52.45,-20.02 72.45,-0.01 20.02,20.01 20.02,52.45 0,72.46zm-261.13 -261.13c-20,20.01 -52.43,20.01 -72.45,0 -20.01,-20.02 -20.01,-52.45 -0.01,-72.46 20.01,-20.01 52.46,-20 72.46,-0.01 20.02,20.02 20.02,52.46 0,72.47zm-261.12 -261.12c-20.01,20.01 -52.44,20 -72.46,-0.01 -20.01,-20.01 -20.01,-52.46 -0.01,-72.45 20.02,-20.03 52.46,-20.02 72.46,-0.01 20.02,20.02 20.02,52.45 0.01,72.47zm-261.13 -261.14c-20.01,20.01 -52.44,20 -72.46,0.01 -20.01,-20.03 -20.01,-52.45 -0.01,-72.46 20.02,-20.02 52.46,-20.02 72.47,-0.02 20.01,20.02 20.01,52.46 0,72.47zm-261.13 -261.11c-20.01,19.99 -52.44,19.99 -72.45,-0.02 -20.02,-20.01 -20.02,-52.45 -0.02,-72.45 20.02,-20.02 52.46,-20.01 72.47,0 20.01,20.01 20.01,52.44 0,72.47zm-261.13 -261.15c-20.01,20.01 -52.44,20.01 -72.46,-0.01 -20.01,-20.01 -20.01,-52.44 0,-72.46 20,-19.99 52.45,-19.99 72.46,0.01 20.01,20.02 20.01,52.46 0,72.46zm-261.13 -261.14c-20.01,20.03 -52.44,20.01 -72.45,0.02 -20.02,-20.03 -20.02,-52.45 -0.01,-72.46 20.01,-20.01 52.45,-20.02 72.46,-0.01 20.01,20.02 20.01,52.46 0,72.45zm-261.13 -261.11c-20.01,20 -52.44,20.01 -72.45,0 -20.02,-20.03 -20.02,-52.45 -0.01,-72.46 20.01,-20.01 52.45,-20.01 72.46,0 20.01,20.01 20.01,52.45 0,72.46zm-261.13 -261.13c-20,20.02 -52.44,20 -72.45,0 -20.02,-20.02 -20.02,-52.45 -0.01,-72.46 20,-20.02 52.46,-20.01 72.46,0 20.01,20.01 20.02,52.45 0,72.46zm-261.13 -261.15c-20,20.03 -52.44,20.03 -72.45,0.02 -20.01,-20.03 -20.01,-52.45 -0.01,-72.46 20.02,-20.01 52.46,-20 72.46,-0.01 20.02,20.02 20.02,52.46 0,72.45zm-261.14 -261.11c-19.99,20.01 -52.43,20.01 -72.44,0 -20.01,-20.03 -20.01,-52.46 -0.02,-72.46 20.03,-20.01 52.47,-20.01 72.47,0 20.03,20.01 20.02,52.45 -0.01,72.46zm-261.12 -261.13c-20,20.01 -52.44,20.01 -72.46,0 -20,-20.02 -20,-52.46 0.01,-72.47 20,-19.99 52.45,-19.99 72.46,0 20.01,20.02 20,52.47 -0.01,72.47zm-261.13 -261.13c-20,20.01 -52.44,20.01 -72.45,0 -20.01,-20.02 -20.01,-52.45 0,-72.46 20.01,-20.01 52.45,-20.01 72.45,-0.01 20.02,20.02 20.01,52.46 0,72.47zm3378.03 2889.17c-20,20.02 -52.43,20.01 -72.45,0.01 -20.01,-20.03 -20.01,-52.45 0,-72.46 20.01,-20.01 52.45,-20 72.45,-0.02 20.01,20.03 20.02,52.47 0,72.47zm-261.13 -261.12c-20,20.01 -52.43,20 -72.45,0 -20.01,-20.03 -20.01,-52.45 0,-72.46 20.01,-20.01 52.45,-20 72.45,0 20.02,20.01 20.02,52.45 0,72.46zm-261.13 -261.13c-20,20 -52.42,20.01 -72.44,-0.01 -20.02,-20.02 -20.02,-52.44 -0.01,-72.45 20.01,-20.01 52.45,-20.01 72.45,0 20.02,20.01 20.01,52.46 0,72.46zm-261.13 -261.12c-19.98,20.01 -52.43,20 -72.44,-0.01 -20.01,-20.03 -20.02,-52.45 -0.01,-72.46 20.01,-20.01 52.45,-20 72.45,0 20.02,20.02 20.02,52.46 0,72.47zm-261.13 -261.13c-19.99,20 -52.43,20 -72.44,-0.01 -20.02,-20.03 -20.02,-52.45 -0.02,-72.46 20.03,-20.01 52.47,-20.01 72.46,0 20.03,20.02 20.02,52.46 0,72.47zm-261.12 -261.14c-20,20.01 -52.44,20.01 -72.46,0.01 -20.01,-20.03 -20,-52.46 0,-72.46 20.02,-20.01 52.46,-20.02 72.46,-0.01 20.02,20.01 20.02,52.46 0,72.46zm-261.13 -261.13c-19.99,20.01 -52.44,20.01 -72.45,0 -20.02,-20.01 -20.01,-52.45 0,-72.46 20,-20.01 52.45,-20 72.45,0 20.02,20.01 20.02,52.46 0,72.46zm-261.13 -261.13c-20,20.01 -52.43,20.01 -72.46,0 -20,-20.02 -20,-52.45 0,-72.46 20.01,-20.01 52.46,-20 72.46,0 20.02,20.02 20.02,52.45 0,72.46zm-261.13 -261.13c-20,20.01 -52.43,20.01 -72.46,-0.01 -20,-20.02 -20,-52.45 0,-72.44 20.01,-20.02 52.46,-20 72.46,-0.01 20.02,20.02 20.01,52.45 0,72.46zm-261.13 -261.12c-20,20 -52.43,20 -72.45,-0.01 -20.01,-20.02 -20.01,-52.44 -0.01,-72.45 20.02,-20.01 52.46,-20 72.46,0 20.02,20.02 20.02,52.45 0,72.46zm-261.12 -261.13c-20.01,20 -52.44,20 -72.46,-0.01 -20.01,-20.02 -20.01,-52.45 -0.01,-72.45 20.02,-20.01 52.46,-20 72.47,0 20.01,20.01 20.01,52.45 0,72.46zm-261.13 -261.14c-20.01,20.02 -52.44,20.01 -72.47,0.01 -20,-20.02 -20,-52.45 0,-72.45 20.02,-20.03 52.46,-20.02 72.47,-0.02 20,20.02 20.01,52.46 0,72.46zm-261.13 -261.12c-20.01,20.01 -52.44,19.99 -72.46,0 -20.01,-20.02 -20.01,-52.45 0,-72.46 20.01,-20.01 52.45,-20 72.46,0 20.01,20.01 20,52.45 0,72.46zm-1013.56 7280.76c-20.01,20.01 -52.44,20 -72.45,0 -20.02,-20.03 -20.02,-52.45 -0.02,-72.46 20.02,-20.01 52.46,-20 72.46,0 20.02,20.01 20.03,52.45 0.01,72.46zm244.41 -244.42c-19.99,20.01 -52.43,20 -72.45,0 -20,-20.04 -20,-52.46 0,-72.46 20.01,-20.02 52.45,-20.01 72.45,-0.01 20.02,20.03 20.03,52.46 0,72.47zm-261.13 -261.14c-19.99,20.01 -52.42,20.02 -72.45,0 -20.01,-20.02 -20.01,-52.45 0,-72.45 20.01,-20.02 52.46,-20.01 72.46,-0.01 20.02,20.02 20.02,52.46 -0.01,72.46zm505.57 16.71c-20.01,20.02 -52.43,20.01 -72.44,0 -20.02,-20.02 -20.02,-52.45 -0.01,-72.45 20,-20.01 52.44,-20.01 72.45,-0.01 20.02,20.01 20.01,52.47 0,72.46zm-261.13 -261.13c-20,20.01 -52.43,20.02 -72.45,0 -20,-20.03 -20.01,-52.45 -0.01,-72.45 20,-20.01 52.46,-20.01 72.46,-0.01 20.01,20.02 20.02,52.46 0,72.46zm-261.13 -261.13c-20,20.02 -52.44,20.01 -72.44,0 -20.01,-20.02 -20.02,-52.45 -0.02,-72.45 20.02,-20.01 52.45,-20.01 72.47,-0.01 20.01,20.01 20.01,52.46 -0.01,72.46z"/>
  <path class="fil0" d="M29489.63 5388.69c-7.11,-2.45 -13.8,-6.51 -19.48,-12.2 -20.02,-20.02 -20.01,-52.44 -0.01,-72.46 5.68,-5.68 12.38,-9.75 19.49,-12.2l0 96.86zm-208.16 -273.33c-20,20.01 -52.44,20.01 -72.45,0 -20.01,-20.02 -20.01,-52.45 -0.01,-72.46 20.01,-20.02 52.46,-20 72.46,0 20.02,20.02 20.02,52.45 0,72.46zm-261.13 -261.13c-20,20.01 -52.44,20.01 -72.46,0 -20,-20.02 -20,-52.45 0,-72.46 20.01,-20.01 52.46,-20 72.46,0 20.02,20.02 20.02,52.46 0,72.46zm-261.13 -261.13c-20,20.01 -52.45,20 -72.46,0 -20,-20.02 -20,-52.45 0,-72.45 20.01,-20.02 52.46,-20.01 72.46,-0.01 20.02,20.02 20.02,52.46 0,72.46zm-261.13 -261.13c-20.01,20.01 -52.43,20.02 -72.45,0 -20.02,-20.01 -20.02,-52.44 -0.01,-72.45 20.01,-20.01 52.46,-20.01 72.46,-0.01 20.02,20.02 20.01,52.45 0,72.46zm-261.13 -261.13c-20,20.02 -52.44,20.01 -72.45,0.01 -20.01,-20.03 -20.01,-52.46 -0.01,-72.46 20.01,-20.01 52.46,-20.01 72.46,-0.01 20.02,20.02 20.01,52.47 0,72.46zm-261.12 -261.13c-20.01,20.02 -52.44,20.01 -72.46,0.01 -20.02,-20.03 -20.02,-52.45 -0.01,-72.46 20.01,-20.01 52.46,-20.01 72.47,-0.01 20.01,20.02 20,52.46 0,72.46zm-261.14 -261.12c-20,20.01 -52.43,20 -72.45,0 -20.01,-20.03 -20.01,-52.45 -0.01,-72.46 20.02,-20.02 52.46,-20.01 72.46,0 20.01,20.01 20.02,52.44 0,72.46zm-261.13 -261.13c-20,20.01 -52.43,20.01 -72.45,0 -20.01,-20.03 -20.01,-52.45 0,-72.46 20.01,-20.01 52.45,-20.01 72.45,0 20.02,20.01 20.02,52.45 0,72.46zm-261.13 -261.13c-20,20.01 -52.44,20 -72.45,0 -20.01,-20.03 -20.01,-52.46 -0.01,-72.46 20.02,-20.01 52.46,-20.01 72.46,0 20.02,20.01 20.02,52.46 0,72.46zm2297.24 1859.65c-13.09,-0.02 -26.2,-5.02 -36.19,-15.01 -20.01,-20.03 -20.01,-52.46 -0.01,-72.46 9.99,-9.99 23.1,-15 36.2,-15.01l0 102.48zm-224.87 -276.14c-20,20.02 -52.43,20.01 -72.45,0 -20.01,-20.02 -20.01,-52.45 -0.01,-72.45 20.02,-20.02 52.46,-20.02 72.46,-0.01 20.01,20.01 20.02,52.46 0,72.46zm-261.13 -261.13c-20,20.02 -52.43,20.01 -72.45,0 -20.01,-20.02 -20.01,-52.45 -0.01,-72.46 20.02,-20.01 52.46,-20.01 72.46,0 20.02,20.01 20.02,52.46 0,72.46zm-261.13 -261.13c-20.01,20.02 -52.43,20.01 -72.46,0.01 -20,-20.03 -20,-52.46 0,-72.47 20.02,-20.01 52.46,-20 72.46,0 20.02,20.01 20.02,52.46 0,72.46zm-261.13 -261.13c-20.01,20.02 -52.43,20 -72.44,0 -20.02,-20.02 -20.02,-52.44 -0.01,-72.46 20.01,-20.01 52.44,-20.01 72.45,0 20.02,20.02 20.02,52.46 0,72.46zm-261.13 -261.12c-20,20 -52.43,20 -72.45,-0.01 -20.01,-20.02 -20.01,-52.45 0,-72.46 20.01,-20.01 52.46,-19.99 72.45,0.01 20.02,20.02 20.02,52.45 0,72.46zm-261.13 -261.14c-19.99,20.01 -52.43,20.01 -72.45,0 -20,-20.02 -20,-52.46 0,-72.45 20.01,-20.01 52.45,-20.01 72.45,-0.01 20.02,20.02 20.02,52.46 0,72.46zm-261.13 -261.13c-19.99,20.01 -52.43,20.01 -72.45,0 -20.01,-20.02 -20.01,-52.45 -0.01,-72.44 20.02,-20.02 52.47,-20.02 72.46,-0.02 20.02,20.02 20.02,52.46 0,72.46zm-261.12 -261.13c-20,20.02 -52.44,20.01 -72.46,0 -20.01,-20.01 -20.01,-52.44 0,-72.45 20.01,-20.01 52.46,-20.01 72.46,-0.01 20.02,20.02 20.02,52.46 0,72.46zm2052.8 1595.74c-17.93,6.16 -38.58,2.07 -52.9,-12.24 -20.01,-20.01 -20.01,-52.44 0,-72.45 14.31,-14.31 34.98,-18.38 52.9,-12.24l0 96.93zm-241.57 -273.36c-20,20.01 -52.44,20 -72.46,-0.01 -20.01,-20.01 -20.01,-52.44 0,-72.45 20.01,-20.01 52.46,-20 72.46,0 20.01,20.02 20.01,52.45 0,72.46zm-261.13 -261.13c-20,20.01 -52.44,20 -72.46,0 -20.01,-20.02 -20.01,-52.45 0,-72.46 20.01,-20.01 52.46,-20 72.46,0 20.01,20.02 20.01,52.45 0,72.46zm-261.13 -261.13c-20,20.01 -52.45,20.01 -72.46,0.01 -20.01,-20.03 -20.01,-52.46 0,-72.46 20.01,-20.02 52.46,-20.01 72.46,-0.01 20.01,20.02 20.01,52.45 0,72.46zm-261.13 -261.13c-20.01,20.01 -52.43,20.01 -72.46,0 -20.01,-20.02 -20.01,-52.45 0,-72.45 20.01,-20.02 52.45,-20.01 72.46,-0.01 20.01,20.01 20.01,52.45 0,72.46zm-261.13 -261.13c-20.01,20.02 -52.43,20.01 -72.45,0 -20.02,-20.02 -20.02,-52.45 -0.01,-72.46 20.01,-20.01 52.45,-20.01 72.46,0 20.01,20.01 20.01,52.45 0,72.46zm-261.13 -261.13c-20.01,20.02 -52.43,20.01 -72.45,0 -20.02,-20.02 -20.02,-52.45 -0.01,-72.46 20.02,-20.01 52.46,-20 72.46,0 20.01,20.01 20.02,52.45 0,72.46zm-261.13 -261.12c-20,20.01 -52.44,20 -72.45,-0.01 -20.01,-20.02 -20.01,-52.45 -0.01,-72.46 20.01,-20.01 52.46,-20 72.46,0 20.02,20.02 20.01,52.46 0,72.47zm1808.38 1325c-20.13,17.33 -50.51,16.44 -69.6,-2.63 -20.02,-20.03 -20.02,-52.46 -0.01,-72.47 19.08,-19.07 49.48,-19.97 69.61,-2.65l0 77.75zm-258.29 -263.77c-19.99,20.01 -52.43,20 -72.44,0 -20.01,-20.03 -20.01,-52.46 -0.02,-72.46 20.02,-20.01 52.47,-20.01 72.47,-0.01 20.02,20.01 20.01,52.46 -0.01,72.47zm-261.12 -261.13c-20,20.01 -52.44,20 -72.45,0 -20.01,-20.03 -20.01,-52.46 0,-72.47 20.01,-20.01 52.45,-20 72.45,0 20.02,20.02 20.02,52.46 0,72.47zm-261.13 -261.13c-20,20.01 -52.43,20 -72.45,0 -20.01,-20.03 -20.01,-52.46 -0.01,-72.46 20.02,-20.02 52.46,-20.01 72.46,-0.01 20.02,20.02 20.02,52.46 0,72.47zm-261.13 -261.13c-20.01,20 -52.44,20 -72.45,0 -20.02,-20.03 -20.01,-52.45 0,-72.46 20.01,-20.01 52.44,-20 72.45,-0.01 20.02,20.02 20.01,52.46 0,72.47zm-261.14 -261.13c-19.98,20.01 -52.42,20 -72.44,0 -20.01,-20.02 -20.01,-52.46 0,-72.46 20,-20 52.46,-20.01 72.44,0 20.02,20.02 20.02,52.46 0,72.46zm-261.11 -261.14c-20.01,20.02 -52.44,20.01 -72.46,0.01 -20.01,-20.02 -20.01,-52.45 -0.01,-72.46 20.01,-20.01 52.47,-20.01 72.47,-0.01 20.01,20.02 20.01,52.46 0,72.46zm1550.09 1061.25c-20,20 -52.43,20 -72.45,0 -20.01,-20.03 -20.01,-52.46 -0.01,-72.45 20.01,-20.02 52.46,-20.01 72.47,0 7.22,7.22 11.85,16.08 13.85,25.39l0 21.65c-2,9.31 -6.63,18.18 -13.86,25.41zm-261.13 -261.13c-20,20.01 -52.43,20.01 -72.45,0 -20.01,-20.02 -20.01,-52.44 -0.01,-72.45 20.02,-20.01 52.46,-20.01 72.46,-0.01 20.02,20.02 20.02,52.45 0,72.46zm-261.12 -261.13c-20.01,20.02 -52.44,20.02 -72.46,0 -20.01,-20.02 -20.01,-52.44 -0.01,-72.45 20.02,-20.01 52.46,-20.01 72.47,-0.01 20.01,20.02 20.01,52.46 0,72.46zm-261.14 -261.13c-20,20.01 -52.43,20.01 -72.45,0.01 -20.02,-20.03 -20.01,-52.45 0,-72.46 20.01,-20.01 52.45,-20.01 72.45,-0.01 20.02,20.02 20.02,52.46 0,72.46zm-261.13 -261.12c-20,20.02 -52.43,19.99 -72.45,0 -20.02,-20.02 -20.02,-52.45 0,-72.46 20.01,-20.01 52.45,-20.01 72.45,0 20.02,20.01 20.02,52.45 0,72.46zm-261.13 -261.12c-20,20 -52.43,20 -72.44,-0.01 -20.02,-20.03 -20.02,-52.45 -0.01,-72.46 20.01,-20.01 52.46,-20 72.45,0 20.02,20.02 20.02,52.45 0,72.47zm1288.97 800.09c-20.01,20.01 -52.44,20.01 -72.45,0 -20.02,-20.02 -20.01,-52.45 -0.01,-72.46 20.01,-20.01 52.46,-20.01 72.46,-0.01 20.02,20.01 20.02,52.46 0,72.47zm-261.13 -261.13c-20,20.01 -52.44,20.01 -72.46,0 -20,-20.02 -20,-52.45 0,-72.46 20.01,-20.01 52.46,-20.01 72.46,0 20.02,20.02 20.02,52.46 0,72.46zm-261.13 -261.13c-20,20.01 -52.44,20.01 -72.46,0 -20.01,-20.02 -20.01,-52.45 0,-72.46 20.01,-20.01 52.46,-20 72.46,0 20.02,20.02 20.02,52.46 0,72.46zm-261.13 -261.13c-20,20.01 -52.44,20.01 -72.45,0 -20.02,-20.02 -20.02,-52.45 -0.01,-72.46 20.01,-20.01 52.46,-20 72.46,0 20.02,20.02 20.02,52.45 0,72.46zm-261.13 -261.13c-20,20.01 -52.43,20.01 -72.46,0 -20.01,-20.02 -20.01,-52.45 0,-72.45 20.01,-20.02 52.46,-20.01 72.46,-0.01 20.02,20.02 20.02,52.45 0,72.46zm1027.83 538.98c-20.01,20.01 -52.43,20 -72.45,0 -20.02,-20.02 -20.02,-52.45 -0.01,-72.46 20.01,-20.01 52.45,-20 72.46,0 20.02,20.02 20.01,52.45 0,72.46zm-261.13 -261.13c-20,20.01 -52.43,20 -72.45,0 -20.01,-20.02 -20.01,-52.45 -0.02,-72.45 20.02,-20.02 52.47,-20.01 72.47,-0.01 20.02,20.01 20.02,52.45 0,72.46zm-261.13 -261.13c-20,20.01 -52.44,20 -72.45,0 -20.01,-20.02 -20.01,-52.45 -0.01,-72.46 20.02,-20.01 52.46,-20 72.46,0 20.02,20.01 20.02,52.45 0,72.46zm-261.13 -261.13c-20,20.01 -52.43,20 -72.45,0 -20.01,-20.02 -20.01,-52.45 0,-72.46 20.01,-20.01 52.45,-20 72.45,0 20.02,20.01 20.02,52.45 0,72.46zm766.69 277.85c-20,20.01 -52.43,20 -72.45,0 -20.01,-20.04 -20.01,-52.46 0,-72.46 20.01,-20.02 52.45,-20.01 72.45,-0.01 20.02,20.02 20.02,52.46 0,72.47zm-261.12 -261.13c-20,20 -52.44,20 -72.46,0 -20.01,-20.03 -20.01,-52.46 0,-72.46 20.01,-20.02 52.46,-20.01 72.46,-0.01 20.01,20.02 20.01,52.46 0,72.47zm-261.13 -261.13c-20.01,20.01 -52.44,20.01 -72.46,0 -20.01,-20.02 -20.01,-52.46 -0.01,-72.46 20.02,-20.01 52.46,-20.01 72.47,-0.01 20.01,20.02 20.01,52.46 0,72.47zm505.56 16.7c-20,20.01 -52.44,20.01 -72.45,0 -20.02,-20.02 -20.02,-52.45 -0.01,-72.45 20.02,-20.02 52.46,-20.01 72.46,-0.02 20.02,20.02 20.02,52.46 0,72.47zm-261.13 -261.12c-20,20.01 -52.44,20 -72.45,-0.01 -20.01,-20.02 -20.01,-52.44 -0.01,-72.45 20.02,-20.01 52.46,-20.01 72.46,0 20.02,20.01 20.02,52.45 0,72.46zm244.43 -244.43c-20.01,20.01 -52.44,20.01 -72.46,0 -20.02,-20.02 -20.02,-52.45 -0.01,-72.46 20.01,-20.01 52.46,-20 72.47,0 20.01,20.02 20,52.45 0,72.46z"/>
  <g id="_2768286549744">
   <polyline class="fil1 str0" points="19618.44,13826.55 26050.79,7394.2 29478.15,10821.55 "/>
   <polyline class="fil1 str0" points="24190.01,13826.55 26683.12,11332.44 29177.23,13826.55 "/>
   <polyline class="fil1 str1" points="27573.7,13826.55 24535.86,10788.71 29478.15,5846.42 "/>
  </g>
  <g id="_2768286491440">
   <polyline class="fil1 str2" points="6528.7,12.42 4605.56,1935.56 2682.41,12.42 "/>
   <polyline class="fil1 str0" points="8067.14,12.42 4536.94,3542.6 1006.75,12.42 "/>
  </g>
  <polygon class="fil1 str0" points="810.55,13826.55 4974.76,9873.21 8311.95,13388.42 4974.76,9873.21 "/>
  <polyline class="fil1 str1" points="5384.4,13826.55 5739.46,12627.01 9792.16,13826.55 "/>
 </g>
</svg>
