<?xml version="1.0" encoding="UTF-8"?>
<!DOCTYPE svg PUBLIC "-//W3C//DTD SVG 1.1//EN" "http://www.w3.org/Graphics/SVG/1.1/DTD/svg11.dtd">
<!-- Creator: CorelDRAW 2019 (64-Bit) -->
<svg xmlns="http://www.w3.org/2000/svg" xml:space="preserve" width="297.382mm" height="190.925mm" version="1.1" style="shape-rendering:geometricPrecision; text-rendering:geometricPrecision; image-rendering:optimizeQuality; fill-rule:evenodd; clip-rule:evenodd"
viewBox="0 0 29737.04 19091.79"
 xmlns:xlink="http://www.w3.org/1999/xlink"
 xmlns:xodm="http://www.corel.com/coreldraw/odm/2003">
 <defs>
  <style type="text/css">
   <![CDATA[
    .str0 {stroke:#AFC9FF;stroke-width:52.92;stroke-miterlimit:22.9256}
    .str1 {stroke:#B0FFB0;stroke-width:52.92;stroke-miterlimit:22.9256}
    .fil1 {fill:none}
    .fil0 {fill:#B0FFB0;fill-opacity:0.501961}
   ]]>
  </style>
 </defs>
 <g id="Capa_x0020_1">
  <metadata id="CorelCorpID_0Corel-Layer"/>
  <g id="_2914159969216">
   <path class="fil0" d="M24635.34 142.48c27.16,-27.14 27.16,-71.16 0.01,-98.32 -27.17,-27.15 -71.18,-27.15 -98.31,0.01 -27.17,27.14 -27.17,71.17 -0.03,98.31 27.15,27.16 71.19,27.16 98.33,0zm-331.65 331.66c27.15,-27.14 27.14,-71.16 0.02,-98.32 -27.19,-27.15 -71.2,-27.15 -98.34,0 -27.17,27.16 -27.15,71.18 -0.01,98.32 27.16,27.16 71.18,27.16 98.33,0zm-354.33 -354.33c27.15,-27.14 27.14,-71.16 0,-98.32 -0.87,-0.87 -1.76,-1.69 -2.66,-2.51l-93.04 0c-0.9,0.81 -1.78,1.65 -2.64,2.51 -27.14,27.15 -27.13,71.18 0.01,98.32 27.16,27.15 71.18,27.16 98.33,0zm22.67 685.98c27.15,-27.15 27.14,-71.16 -0.01,-98.32 -27.15,-27.15 -71.16,-27.15 -98.31,-0.01 -27.15,27.16 -27.15,71.19 -0.01,98.33 27.16,27.16 71.18,27.16 98.33,0zm-354.33 -354.33c27.15,-27.14 27.14,-71.15 0,-98.32 -27.18,-27.15 -71.19,-27.14 -98.32,-0.01 -27.16,27.15 -27.15,71.19 -0.01,98.33 27.16,27.16 71.18,27.16 98.33,0zm-354.33 -354.33c21.15,-21.14 25.83,-52.49 14.05,-78.16l-126.41 0c-11.78,25.67 -7.09,57.03 14.04,78.16 27.16,27.16 71.18,27.16 98.33,0zm376.97 1040.31c27.17,-27.15 27.16,-71.16 0.02,-98.32 -27.16,-27.16 -71.19,-27.15 -98.32,-0.01 -27.16,27.16 -27.15,71.19 -0.02,98.32 27.15,27.15 71.19,27.17 98.32,0.01zm-354.3 -354.33c27.14,-27.14 27.14,-71.16 -0.01,-98.32 -27.16,-27.15 -71.18,-27.15 -98.32,-0.01 -27.16,27.16 -27.15,71.19 0,98.33 27.16,27.16 71.17,27.16 98.33,0zm-354.34 -354.33c27.15,-27.14 27.15,-71.16 -0.01,-98.33 -27.16,-27.14 -71.17,-27.14 -98.32,0.01 -27.14,27.15 -27.14,71.18 0,98.32 27.16,27.16 71.19,27.16 98.33,0zm-354.33 -354.33c15.19,-15.19 21.88,-35.65 20.08,-55.49l-138.46 0c-1.81,19.84 4.88,40.31 20.06,55.49 27.16,27.16 71.19,27.16 98.33,0zm731.32 1394.62c27.15,-27.13 27.15,-71.15 0.01,-98.31 -27.18,-27.15 -71.2,-27.16 -98.34,0 -27.15,27.14 -27.14,71.17 0.01,98.31 27.16,27.16 71.19,27.17 98.32,0zm-354.32 -354.33c27.14,-27.13 27.14,-71.15 -0.01,-98.31 -27.17,-27.15 -71.18,-27.14 -98.32,-0.01 -27.15,27.15 -27.15,71.19 0,98.32 27.16,27.16 71.18,27.16 98.33,0zm-354.34 -354.32c27.16,-27.14 27.14,-71.16 0,-98.32 -27.16,-27.15 -71.17,-27.15 -98.31,-0.01 -27.16,27.16 -27.16,71.19 -0.02,98.33 27.17,27.17 71.19,27.16 98.33,0zm-354.32 -354.33c27.15,-27.13 27.14,-71.16 0,-98.32 -27.17,-27.15 -71.19,-27.16 -98.32,0.01 -27.16,27.14 -27.15,71.17 -0.01,98.31 27.15,27.16 71.18,27.16 98.33,0zm-354.33 -354.33c9.39,-9.39 15.53,-20.79 18.42,-32.82l-135.16 0c2.9,12.03 9.04,23.44 18.42,32.82 27.16,27.16 71.17,27.16 98.33,0zm1085.64 1748.94c27.16,-27.12 27.14,-71.14 0.01,-98.3 -27.16,-27.16 -71.17,-27.16 -98.34,-0.01 -27.14,27.15 -27.14,71.17 0,98.32 27.16,27.15 71.19,27.17 98.33,-0.01zm-354.33 -354.32c27.16,-27.14 27.14,-71.13 -0.01,-98.31 -27.15,-27.16 -71.16,-27.16 -98.31,-0.01 -27.14,27.15 -27.14,71.19 -0.01,98.32 27.17,27.16 71.19,27.15 98.33,0zm-354.33 -354.33c27.15,-27.12 27.15,-71.15 0,-98.31 -27.18,-27.15 -71.17,-27.15 -98.32,-0.02 -27.16,27.16 -27.14,71.2 -0.01,98.33 27.17,27.17 71.18,27.16 98.33,0zm-354.32 -354.31c27.15,-27.15 27.14,-71.17 0,-98.33 -27.17,-27.15 -71.17,-27.15 -98.32,-0.01 -27.15,27.16 -27.15,71.19 -0.01,98.34 27.16,27.15 71.18,27.15 98.33,0zm-354.33 -354.34c27.15,-27.14 27.16,-71.17 0,-98.32 -27.16,-27.16 -71.18,-27.15 -98.32,-0.01 -27.16,27.16 -27.15,71.19 -0.01,98.33 27.16,27.16 71.18,27.16 98.33,0zm-354.33 -354.33c3.17,-3.17 5.97,-6.57 8.4,-10.15l-115.13 0c2.43,3.58 5.23,6.98 8.4,10.15 27.16,27.16 71.18,27.16 98.33,0zm1439.96 2103.28c27.16,-27.14 27.14,-71.16 0,-98.31 -27.16,-27.16 -71.17,-27.16 -98.31,-0.01 -27.16,27.15 -27.16,71.18 -0.01,98.32 27.15,27.16 71.18,27.16 98.32,0zm-354.33 -354.33c27.16,-27.14 27.16,-71.15 0,-98.31 -27.16,-27.16 -71.17,-27.16 -98.32,-0.02 -27.15,27.16 -27.14,71.19 -0.01,98.33 27.16,27.17 71.19,27.16 98.33,0zm-354.31 -354.32c27.15,-27.15 27.13,-71.16 -0.01,-98.32 -27.16,-27.16 -71.19,-27.16 -98.32,-0.02 -27.17,27.17 -27.16,71.19 -0.01,98.33 27.16,27.16 71.17,27.16 98.34,0.01zm-354.35 -354.33c27.16,-27.14 27.15,-71.16 0.02,-98.32 -27.18,-27.15 -71.18,-27.15 -98.33,-0.01 -27.16,27.16 -27.16,71.19 -0.02,98.33 27.16,27.16 71.19,27.16 98.33,0zm-354.3 -354.33c27.13,-27.14 27.13,-71.16 -0.02,-98.31 -27.16,-27.16 -71.18,-27.16 -98.32,-0.02 -27.16,27.16 -27.15,71.19 0,98.33 27.16,27.16 71.17,27.16 98.34,0zm-354.35 -354.33c27.15,-27.14 27.15,-71.16 -0.01,-98.32 -27.16,-27.15 -71.17,-27.15 -98.33,0 -27.13,27.14 -27.13,71.18 0.01,98.32 27.16,27.16 71.19,27.16 98.33,0zm-435.6 -341.81c20.07,10.46 44.18,10.46 64.24,0l-64.24 0zm1875.56 2445.08c27.16,-27.14 27.15,-71.16 0.01,-98.32 -27.18,-27.15 -71.18,-27.15 -98.32,0 -27.16,27.15 -27.15,71.18 -0.03,98.32 27.18,27.15 71.2,27.16 98.34,0zm-354.32 -354.33c27.15,-27.14 27.14,-71.15 0,-98.32 -27.18,-27.15 -71.18,-27.15 -98.33,0 -27.15,27.15 -27.14,71.18 0,98.32 27.16,27.16 71.18,27.16 98.33,0zm-354.33 -354.33c27.14,-27.14 27.15,-71.14 -0.01,-98.31 -27.17,-27.16 -71.17,-27.16 -98.31,-0.01 -27.16,27.15 -27.16,71.18 -0.01,98.32 27.16,27.16 71.19,27.15 98.33,0zm-354.32 -354.33c27.15,-27.12 27.14,-71.15 -0.01,-98.31 -27.17,-27.15 -71.18,-27.16 -98.32,-0.01 -27.15,27.15 -27.14,71.18 0,98.32 27.16,27.16 71.18,27.16 98.33,0zm-354.32 -354.33c27.13,-27.13 27.13,-71.15 -0.02,-98.31 -27.17,-27.16 -71.17,-27.16 -98.32,-0.02 -27.15,27.17 -27.15,71.2 0,98.33 27.16,27.17 71.18,27.16 98.34,0zm-354.35 -354.32c27.16,-27.14 27.15,-71.16 0.01,-98.33 -27.17,-27.15 -71.18,-27.13 -98.32,0 -27.15,27.16 -27.16,71.19 -0.02,98.33 27.16,27.16 71.19,27.17 98.33,0zm-354.32 -354.33c27.15,-27.13 27.14,-71.16 0,-98.32 -27.16,-27.16 -71.18,-27.15 -98.33,0 -27.15,27.15 -27.14,71.18 -0.01,98.32 27.16,27.16 71.19,27.16 98.34,0z"/>
   <polyline class="fil1 str0" points="19.19,12091.3 2717.11,14931.82 19.19,17629.74 "/>
   <polyline class="fil1 str1" points="19.19,13916.16 983.86,14931.82 19.19,15896.49 "/>
   <polyline class="fil1 str0" points="26246.49,18.99 25524.01,720.29 15563.31,10848.86 21781.84,17067.39 29717.99,8831.92 "/>
   <path class="fil1 str0" d="M25831.34 12623.68l-3077.2 -3205.51 -3584.27 3627.97m0 0l-4683.66 4740.78 1183.59 1286.15m0 0l-1183.59 -1286.15"/>
   <polyline class="fil1 str1" points="25159.9,19073.08 18148.81,12018.8 11094.54,19073.08 "/>
  </g>
 </g>
</svg>
