<svg xmlns="http://www.w3.org/2000/svg" xml:space="preserve" width="297.046mm" height="191.233mm" version="1.1" style="shape-rendering:geometricPrecision; text-rendering:geometricPrecision; image-rendering:optimizeQuality; fill-rule:evenodd; clip-rule:evenodd"
viewBox="0 0 29730.12 19139.71"
 xmlns:xlink="http://www.w3.org/1999/xlink"
 xmlns:xodm="http://www.corel.com/coreldraw/odm/2003">
 <defs>
  <style type="text/css">
   <![CDATA[
    .str2 {stroke:#E6E7E8;stroke-width:35.31;stroke-miterlimit:22.9256}
    .str0 {stroke:#B0FFB0;stroke-width:35.31;stroke-miterlimit:22.9256}
    .str1 {stroke:white;stroke-width:35.31;stroke-miterlimit:22.9256}
    .fil1 {fill:none}
    .fil0 {fill:#ADC9FF;fill-opacity:0.501961}
   ]]>
  </style>
 </defs>
 <g id="Capa_x0020_1">
  <metadata id="CorelCorpID_0Corel-Layer"/>
  <path class="fil0" d="M274.35 9696.73c-27.16,27.17 -71.21,27.17 -98.39,0 -27.18,-27.19 -27.18,-71.25 -0.01,-98.4 27.16,-27.18 71.24,-27.17 98.4,-0.01 27.18,27.18 27.17,71.25 0,98.41zm331.95 -331.95c-27.17,27.18 -71.22,27.17 -98.4,0.01 -27.18,-27.19 -27.18,-71.24 0,-98.41 27.17,-27.18 71.23,-27.17 98.4,-0.01 27.19,27.17 27.18,71.24 0,98.41zm-354.64 -354.64c-27.15,27.18 -71.21,27.17 -98.4,0.01 -27.18,-27.18 -27.18,-71.25 0,-98.41 27.17,-27.17 71.25,-27.16 98.39,-0.01 27.18,27.18 27.19,71.25 0.01,98.41zm686.61 22.7c-27.17,27.16 -71.23,27.16 -98.41,-0.01 -27.16,-27.18 -27.16,-71.23 0,-98.4 27.17,-27.17 71.24,-27.17 98.41,0 27.18,27.18 27.17,71.24 0,98.41zm-354.66 -354.65c-27.15,27.18 -71.21,27.17 -98.38,0.01 -27.18,-27.19 -27.18,-71.24 0,-98.41 27.17,-27.17 71.23,-27.16 98.39,-0.01 27.18,27.18 27.18,71.24 -0.01,98.41zm-354.63 -354.63c-27.16,27.17 -71.22,27.15 -98.39,0 -27.19,-27.18 -27.18,-71.24 0,-98.4 27.16,-27.18 71.23,-27.17 98.39,-0.01 27.17,27.18 27.18,71.24 0,98.41zm1041.24 377.33c-27.16,27.17 -71.22,27.16 -98.41,0 -27.16,-27.19 -27.16,-71.24 0,-98.41 27.19,-27.18 71.25,-27.17 98.41,0 27.18,27.18 27.18,71.24 0,98.41zm-354.64 -354.64c-27.17,27.17 -71.22,27.14 -98.41,-0.01 -27.16,-27.18 -27.16,-71.24 0,-98.39 27.18,-27.18 71.26,-27.17 98.41,-0.01 27.18,27.18 27.18,71.24 0,98.41zm-354.64 -354.64c-27.16,27.18 -71.21,27.16 -98.4,0 -27.17,-27.19 -27.17,-71.24 0,-98.4 27.17,-27.18 71.24,-27.17 98.4,-0.01 27.17,27.19 27.18,71.24 0,98.41zm-354.64 -354.64c-27.15,27.16 -71.21,27.16 -98.39,0 -27.17,-27.2 -27.17,-71.25 -0.01,-98.4 27.17,-27.18 71.24,-27.18 98.4,-0.01 27.18,27.18 27.18,71.25 0,98.41zm1003.66 10298.34c-27.16,27.18 -71.22,27.16 -98.38,0.01 -27.2,-27.2 -27.19,-71.24 -0.02,-98.4 27.17,-27.18 71.23,-27.17 98.4,-0.02 27.18,27.19 27.18,71.25 0,98.41zm-354.63 -354.64c-27.17,27.19 -71.22,27.18 -98.4,0 -27.18,-27.18 -27.18,-71.23 -0.01,-98.4 27.17,-27.17 71.25,-27.16 98.39,0 27.18,27.18 27.19,71.24 0.02,98.4zm-354.65 -354.63c-27.16,27.16 -71.21,27.16 -98.38,0.01 -27.19,-27.22 -27.19,-71.26 -0.02,-98.42 27.17,-27.16 71.25,-27.17 98.4,0 27.19,27.19 27.17,71.26 0,98.41zm-354.63 -354.65c-27.16,27.18 -71.22,27.17 -98.4,0.01 -27.17,-27.19 -27.17,-71.23 -0.01,-98.41 27.18,-27.16 71.26,-27.18 98.41,-0.02 27.18,27.19 27.18,71.26 0,98.42zm1395.88 731.98c-27.16,27.18 -71.22,27.17 -98.4,0.01 -27.18,-27.21 -27.17,-71.24 0,-98.4 27.17,-27.18 71.24,-27.17 98.4,-0.02 27.18,27.18 27.18,71.25 0,98.41zm-354.65 -354.63c-27.14,27.18 -71.2,27.15 -98.39,-0.01 -27.17,-27.18 -27.17,-71.23 0.01,-98.4 27.15,-27.18 71.23,-27.16 98.4,-0.01 27.17,27.19 27.17,71.25 -0.02,98.42zm-354.62 -354.65c-27.17,27.19 -71.22,27.18 -98.41,-0.01 -27.17,-27.18 -27.17,-71.21 0,-98.39 27.17,-27.18 71.23,-27.17 98.4,0 27.18,27.18 27.17,71.25 0.01,98.4zm-354.64 -354.62c-27.17,27.15 -71.22,27.15 -98.4,-0.01 -27.17,-27.18 -27.17,-71.24 -0.01,-98.4 27.18,-27.17 71.25,-27.16 98.4,-0.02 27.17,27.19 27.19,71.26 0.01,98.43zm-354.64 -354.63c-27.16,27.16 -71.22,27.15 -98.4,-0.02 -27.17,-27.18 -27.17,-71.24 -0.02,-98.4 27.19,-27.17 71.26,-27.17 98.42,0 27.18,27.18 27.17,71.24 0,98.42zm1750.52 1086.6c-27.16,27.17 -71.22,27.17 -98.4,0 -27.17,-27.2 -27.17,-71.24 0,-98.41 27.17,-27.16 71.24,-27.16 98.4,0 27.18,27.18 27.18,71.24 0,98.41zm-354.64 -354.64c-27.16,27.17 -71.22,27.17 -98.4,0 -27.17,-27.18 -27.17,-71.24 0,-98.4 27.17,-27.18 71.24,-27.17 98.4,-0.01 27.19,27.18 27.18,71.24 0,98.41zm-354.63 -354.64c-27.18,27.17 -71.22,27.17 -98.41,0.01 -27.18,-27.2 -27.17,-71.25 0,-98.41 27.17,-27.18 71.24,-27.17 98.4,-0.01 27.18,27.18 27.18,71.24 0.01,98.41zm-354.65 -354.63c-27.16,27.17 -71.21,27.16 -98.39,-0.01 -27.18,-27.19 -27.18,-71.23 -0.01,-98.4 27.17,-27.17 71.24,-27.17 98.4,-0.01 27.17,27.18 27.18,71.25 0,98.42zm-354.63 -354.65c-27.17,27.18 -71.22,27.17 -98.4,0 -27.18,-27.18 -27.18,-71.23 0.01,-98.41 27.15,-27.16 71.24,-27.15 98.39,0 27.18,27.18 27.17,71.25 0,98.41zm-354.64 -354.64c-27.16,27.18 -71.22,27.17 -98.4,0 -0.76,-0.77 -1.51,-1.53 -2.23,-2.33l0 -93.75 2.22 -2.33c27.18,-27.19 71.25,-27.15 98.41,0 27.18,27.18 27.17,71.21 0,98.41zm2105.17 1441.26c-27.17,27.19 -71.22,27.17 -98.4,0.01 -27.17,-27.18 -27.17,-71.23 -0.01,-98.4 27.18,-27.17 71.26,-27.19 98.42,-0.02 27.16,27.18 27.18,71.26 -0.01,98.41zm-354.62 -354.64c-27.18,27.18 -71.24,27.18 -98.4,0 -27.19,-27.18 -27.19,-71.23 -0.03,-98.4 27.18,-27.17 71.25,-27.16 98.42,-0.02 27.18,27.18 27.17,71.26 0.01,98.42zm-354.67 -354.63c-27.15,27.17 -71.21,27.17 -98.38,0 -27.18,-27.19 -27.18,-71.24 -0.01,-98.41 27.17,-27.17 71.24,-27.16 98.4,0 27.18,27.17 27.18,71.25 -0.01,98.41zm-354.63 -354.64c-27.16,27.18 -71.22,27.16 -98.4,0 -27.17,-27.18 -27.17,-71.23 0,-98.39 27.18,-27.19 71.23,-27.17 98.41,-0.02 27.17,27.19 27.16,71.25 -0.01,98.41zm-354.63 -354.62c-27.18,27.16 -71.23,27.17 -98.4,-0.02 -27.19,-27.18 -27.18,-71.23 0,-98.4 27.16,-27.17 71.24,-27.16 98.39,0 27.19,27.18 27.18,71.24 0.01,98.42zm-354.65 -354.65c-27.15,27.15 -71.21,27.16 -98.39,0.01 -27.18,-27.21 -27.18,-71.27 -0.02,-98.42 27.18,-27.15 71.26,-27.17 98.41,0.01 27.19,27.18 27.18,71.25 0,98.4zm-354.63 -354.65c-21.07,21.09 -52.3,25.8 -77.95,14.18l0 -126.77c25.64,-11.63 56.89,-6.91 77.95,14.17 27.18,27.18 27.19,71.26 0,98.41zm2459.8 1795.9c-27.15,27.18 -71.21,27.19 -98.39,0 -27.18,-27.17 -27.17,-71.22 -0.01,-98.39 27.18,-27.18 71.25,-27.16 98.4,-0.02 27.18,27.18 27.19,71.26 0,98.41zm-354.62 -354.62c-27.17,27.16 -71.24,27.16 -98.41,-0.02 -27.17,-27.18 -27.16,-71.23 -0.01,-98.39 27.18,-27.18 71.25,-27.17 98.42,0 27.17,27.18 27.17,71.24 0,98.41zm-354.65 -354.65c-27.16,27.18 -71.22,27.17 -98.41,0 -27.16,-27.18 -27.15,-71.22 0,-98.39 27.18,-27.18 71.25,-27.18 98.41,-0.02 27.18,27.18 27.18,71.26 0,98.41zm-354.64 -354.64c-27.16,27.18 -71.22,27.18 -98.4,0.01 -27.17,-27.19 -27.17,-71.24 0,-98.4 27.17,-27.17 71.24,-27.17 98.4,-0.02 27.17,27.18 27.18,71.25 0,98.41zm-354.64 -354.62c-27.16,27.16 -71.22,27.17 -98.4,-0.01 -27.17,-27.19 -27.17,-71.24 0,-98.41 27.17,-27.17 71.24,-27.16 98.4,0 27.18,27.18 27.18,71.24 0,98.42zm-354.64 -354.64c-27.16,27.17 -71.21,27.15 -98.39,0 -27.18,-27.19 -27.18,-71.24 -0.01,-98.42 27.16,-27.18 71.23,-27.17 98.4,0 27.19,27.18 27.18,71.23 0,98.42zm-354.64 -354.64c-27.15,27.16 -71.21,27.16 -98.4,0 -27.16,-27.19 -27.16,-71.25 0,-98.41 27.18,-27.16 71.25,-27.16 98.4,-0.02 27.18,27.18 27.18,71.26 0,98.43zm-354.63 -354.65c-15.12,15.13 -35.49,21.83 -55.26,20.11l0 -138.62c19.77,-1.72 40.13,4.97 55.26,20.11 27.18,27.18 27.18,71.24 0,98.4zm2814.45 2150.53c-27.16,27.2 -71.21,27.18 -98.4,0.02 -27.18,-27.19 -27.19,-71.24 -0.01,-98.41 27.16,-27.17 71.25,-27.18 98.4,-0.01 27.18,27.19 27.18,71.26 0.01,98.4zm-354.64 -354.63c-27.17,27.17 -71.22,27.17 -98.39,0 -27.18,-27.18 -27.19,-71.24 -0.02,-98.4 27.17,-27.17 71.26,-27.16 98.42,0 27.18,27.17 27.15,71.24 -0.01,98.4zm-354.64 -354.64c-27.16,27.19 -71.22,27.17 -98.4,-0.01 -27.17,-27.17 -27.17,-71.22 -0.01,-98.39 27.18,-27.18 71.25,-27.16 98.41,-0.01 27.18,27.19 27.18,71.23 0,98.41zm-354.64 -354.63c-27.16,27.17 -71.22,27.16 -98.4,0 -27.17,-27.2 -27.17,-71.24 0,-98.41 27.17,-27.16 71.24,-27.16 98.4,0 27.18,27.18 27.18,71.24 0,98.41zm-354.64 -354.64c-27.15,27.17 -71.22,27.17 -98.4,0 -27.17,-27.19 -27.16,-71.25 0,-98.41 27.17,-27.17 71.24,-27.16 98.4,-0.01 27.18,27.19 27.18,71.25 0,98.42zm-354.64 -354.64c-27.17,27.17 -71.22,27.17 -98.41,-0.01 -27.16,-27.18 -27.17,-71.24 0.01,-98.39 27.16,-27.18 71.24,-27.17 98.39,-0.01 27.19,27.18 27.18,71.25 0.01,98.41zm-354.64 -354.64c-27.14,27.17 -71.21,27.17 -98.39,0 -27.17,-27.18 -27.18,-71.23 -0.01,-98.4 27.17,-27.17 71.26,-27.18 98.4,-0.01 27.18,27.18 27.18,71.25 0,98.41zm-354.63 -354.64c-27.16,27.18 -71.22,27.18 -98.4,0 -27.17,-27.18 -27.16,-71.23 -0.01,-98.4 27.17,-27.17 71.25,-27.16 98.42,-0.02 27.17,27.19 27.16,71.25 -0.01,98.42zm-354.64 -354.64c-9.32,9.33 -20.64,15.45 -32.57,18.38l0 -135.16c11.93,2.92 23.25,9.05 32.57,18.37 27.18,27.18 27.18,71.23 0,98.41zm3169.09 2505.19c-27.15,27.18 -71.23,27.16 -98.39,0 -27.18,-27.18 -27.19,-71.24 -0.02,-98.4 27.18,-27.17 71.25,-27.16 98.41,-0.01 27.18,27.18 27.18,71.25 0,98.41zm-354.64 -354.63c-27.16,27.17 -71.21,27.17 -98.39,-0.01 -27.18,-27.18 -27.18,-71.23 -0.01,-98.4 27.17,-27.16 71.25,-27.16 98.4,0 27.18,27.18 27.19,71.25 0,98.41zm-354.64 -354.64c-27.15,27.16 -71.21,27.16 -98.39,0 -27.17,-27.21 -27.17,-71.26 -0.01,-98.41 27.17,-27.16 71.25,-27.17 98.4,0 27.19,27.18 27.18,71.25 0,98.41zm-354.63 -354.64c-27.16,27.17 -71.22,27.15 -98.4,0 -27.17,-27.18 -27.17,-71.23 -0.01,-98.4 27.18,-27.17 71.25,-27.17 98.41,-0.01 27.19,27.18 27.18,71.23 0,98.41zm-354.64 -354.64c-27.16,27.17 -71.22,27.17 -98.4,0 -27.17,-27.18 -27.17,-71.25 -0.02,-98.41 27.19,-27.17 71.25,-27.16 98.42,0 27.18,27.18 27.18,71.24 0,98.41zm-354.65 -354.64c-27.15,27.18 -71.22,27.17 -98.39,-0.01 -27.16,-27.18 -27.17,-71.23 0,-98.39 27.18,-27.18 71.23,-27.17 98.4,-0.01 27.17,27.18 27.19,71.25 -0.01,98.41zm-354.63 -354.64c-27.16,27.18 -71.2,27.16 -98.39,0 -27.18,-27.18 -27.18,-71.23 -0.01,-98.4 27.17,-27.17 71.23,-27.16 98.4,-0.01 27.19,27.19 27.18,71.25 0,98.41zm-354.64 -354.63c-27.16,27.16 -71.2,27.17 -98.39,-0.01 -27.18,-27.18 -27.18,-71.23 -0.01,-98.4 27.17,-27.17 71.25,-27.16 98.4,-0.01 27.19,27.19 27.18,71.24 0,98.42zm-354.64 -354.64c-27.15,27.14 -71.21,27.16 -98.39,0 -27.17,-27.2 -27.17,-71.27 -0.02,-98.41 27.18,-27.16 71.26,-27.16 98.41,0 27.18,27.18 27.18,71.25 0,98.41zm-354.63 -354.64c-3.09,3.09 -6.4,5.81 -9.88,8.21l0 -114.83c3.48,2.39 6.79,5.11 9.88,8.21 27.19,27.18 27.18,71.24 0,98.41zm3523.73 2859.82c-27.16,27.18 -71.22,27.18 -98.4,0.01 -27.17,-27.19 -27.17,-71.24 0.01,-98.39 27.16,-27.19 71.23,-27.19 98.39,-0.03 27.18,27.17 27.18,71.25 0,98.41zm-354.65 -354.64c-27.15,27.18 -71.2,27.18 -98.39,0.01 -27.17,-27.19 -27.17,-71.24 0,-98.41 27.17,-27.17 71.25,-27.16 98.4,0 27.18,27.19 27.18,71.24 -0.01,98.4zm-354.63 -354.64c-27.16,27.19 -71.21,27.17 -98.39,0.01 -27.18,-27.17 -27.18,-71.23 -0.01,-98.41 27.17,-27.17 71.24,-27.17 98.4,0.01 27.18,27.17 27.18,71.22 0,98.39zm-354.64 -354.64c-27.15,27.18 -71.21,27.17 -98.39,0 -27.18,-27.18 -27.17,-71.22 -0.01,-98.39 27.19,-27.18 71.25,-27.16 98.4,-0.02 27.18,27.18 27.19,71.25 0,98.41zm-354.63 -354.62c-27.16,27.16 -71.22,27.16 -98.4,-0.01 -27.17,-27.19 -27.16,-71.24 -0.01,-98.4 27.18,-27.18 71.25,-27.17 98.41,0 27.18,27.18 27.18,71.23 0,98.41zm-354.64 -354.65c-27.16,27.17 -71.23,27.18 -98.41,0 -27.14,-27.18 -27.16,-71.24 0,-98.41 27.18,-27.16 71.25,-27.16 98.41,0 27.18,27.18 27.18,71.25 0,98.41zm-354.64 -354.64c-27.16,27.18 -71.23,27.18 -98.4,0.01 -27.17,-27.19 -27.17,-71.24 0,-98.41 27.17,-27.18 71.24,-27.16 98.4,-0.01 27.18,27.18 27.18,71.24 0,98.41zm-354.63 -354.62c-27.17,27.15 -71.22,27.16 -98.41,-0.01 -27.17,-27.19 -27.17,-71.24 0,-98.42 27.17,-27.16 71.24,-27.15 98.4,0.01 27.18,27.18 27.18,71.24 0.01,98.42zm-354.66 -354.64c-27.15,27.18 -71.2,27.15 -98.38,-0.01 -27.18,-27.18 -27.18,-71.22 -0.01,-98.41 27.17,-27.18 71.23,-27.17 98.4,0 27.18,27.18 27.18,71.23 -0.01,98.42zm-354.63 -354.66c-27.15,27.18 -71.21,27.18 -98.39,0.01 -27.17,-27.19 -27.17,-71.24 -0.01,-98.4 27.18,-27.18 71.26,-27.16 98.4,-0.02 27.18,27.18 27.18,71.26 0,98.41zm-341.82 -435.44c10.09,19.8 10.09,43.41 0,63.2l0 -63.2zm3865.56 3295.29c-27.16,27.17 -71.22,27.16 -98.4,0.02 -27.17,-27.21 -27.17,-71.26 0,-98.42 27.18,-27.19 71.24,-27.17 98.4,-0.01 27.18,27.18 27.18,71.24 0,98.41zm-354.64 -354.64c-27.16,27.17 -71.22,27.16 -98.4,0 -27.16,-27.19 -27.17,-71.24 0,-98.42 27.17,-27.16 71.24,-27.15 98.4,0.01 27.17,27.18 27.18,71.24 0,98.41zm-354.65 -354.64c-27.16,27.15 -71.2,27.18 -98.39,-0.02 -27.18,-27.18 -27.17,-71.21 0,-98.38 27.17,-27.18 71.24,-27.15 98.39,0 27.19,27.17 27.18,71.23 0,98.4zm-354.64 -354.64c-27.14,27.18 -71.2,27.17 -98.39,-0.01 -27.16,-27.17 -27.16,-71.23 0,-98.39 27.17,-27.18 71.24,-27.15 98.4,0 27.19,27.18 27.18,71.24 -0.01,98.4zm-354.62 -354.64c-27.17,27.19 -71.22,27.17 -98.41,0.01 -27.16,-27.18 -27.16,-71.25 0,-98.41 27.17,-27.17 71.25,-27.16 98.41,0 27.17,27.19 27.16,71.24 0,98.4zm-354.63 -354.64c-27.17,27.18 -71.23,27.17 -98.41,0 -27.17,-27.18 -27.17,-71.24 -0.01,-98.41 27.18,-27.18 71.25,-27.15 98.4,0 27.19,27.18 27.19,71.23 0.02,98.41zm-354.65 -354.63c-27.16,27.17 -71.22,27.16 -98.4,-0.01 -27.17,-27.18 -27.18,-71.23 0,-98.4 27.18,-27.18 71.24,-27.16 98.4,0 27.18,27.18 27.18,71.24 0,98.41zm-354.64 -354.64c-27.16,27.17 -71.2,27.17 -98.4,0 -27.17,-27.18 -27.17,-71.24 0,-98.41 27.16,-27.17 71.24,-27.16 98.4,0 27.18,27.18 27.18,71.24 0,98.41zm-354.64 -354.64c-27.16,27.17 -71.21,27.17 -98.39,-0.01 -27.18,-27.18 -27.18,-71.24 -0.01,-98.39 27.16,-27.18 71.24,-27.17 98.4,-0.01 27.17,27.19 27.17,71.25 0,98.41zm-354.65 -354.65c-27.14,27.2 -71.21,27.18 -98.38,0.01 -27.17,-27.18 -27.17,-71.23 -0.01,-98.4 27.16,-27.17 71.24,-27.17 98.39,0 27.19,27.18 27.19,71.23 0,98.39zm-354.62 -354.63c-27.16,27.18 -71.22,27.17 -98.4,0 -27.17,-27.19 -27.16,-71.23 -0.01,-98.4 27.17,-27.17 71.25,-27.17 98.41,-0.01 27.18,27.18 27.18,71.25 0,98.41zm3878.38 3214.48c-27.17,27.17 -71.22,27.16 -98.4,-0.01 -27.17,-27.17 -27.17,-71.22 -0.01,-98.39 27.18,-27.17 71.25,-27.17 98.41,-0.01 27.18,27.18 27.18,71.24 0,98.41zm-354.64 -354.64c-27.16,27.17 -71.21,27.16 -98.4,0 -27.17,-27.2 -27.16,-71.25 -0.01,-98.4 27.17,-27.18 71.25,-27.17 98.41,-0.01 27.18,27.18 27.18,71.24 0,98.41zm-354.64 -354.64c-27.17,27.19 -71.22,27.17 -98.4,0.01 -27.17,-27.2 -27.17,-71.25 0,-98.41 27.18,-27.19 71.24,-27.17 98.4,-0.01 27.18,27.18 27.18,71.24 0,98.41zm-354.64 -354.64c-27.16,27.18 -71.22,27.16 -98.39,0 -27.18,-27.18 -27.19,-71.23 -0.01,-98.39 27.17,-27.17 71.24,-27.18 98.4,-0.02 27.18,27.18 27.18,71.25 0,98.41zm-354.64 -354.62c-27.16,27.16 -71.21,27.16 -98.39,-0.02 -27.18,-27.18 -27.18,-71.23 -0.01,-98.4 27.18,-27.16 71.25,-27.16 98.4,0 27.18,27.18 27.17,71.24 0,98.42zm-354.65 -354.65c-27.14,27.15 -71.2,27.16 -98.38,0 -27.17,-27.21 -27.17,-71.26 -0.02,-98.4 27.18,-27.17 71.27,-27.17 98.41,0 27.18,27.17 27.18,71.24 -0.01,98.4zm-354.62 -354.64c-27.15,27.18 -71.22,27.16 -98.4,0 -27.17,-27.17 -27.17,-71.24 -0.01,-98.4 27.18,-27.18 71.25,-27.17 98.41,-0.01 27.18,27.18 27.18,71.24 0,98.41zm-354.64 -354.64c-27.16,27.17 -71.22,27.16 -98.4,0 -27.16,-27.19 -27.17,-71.24 -0.01,-98.4 27.18,-27.18 71.25,-27.17 98.41,-0.01 27.18,27.18 27.18,71.24 0,98.41zm-354.64 -354.64c-27.17,27.18 -71.22,27.17 -98.4,0.01 -27.17,-27.2 -27.18,-71.24 0,-98.41 27.17,-27.18 71.24,-27.17 98.4,-0.01 27.17,27.18 27.18,71.24 0,98.41zm-354.65 -354.64c-27.15,27.18 -71.19,27.16 -98.38,0 -27.18,-27.18 -27.18,-71.23 -0.01,-98.4 27.17,-27.17 71.23,-27.16 98.4,-0.01 27.18,27.18 27.18,71.25 -0.01,98.41zm-354.63 -354.63c-27.16,27.16 -71.2,27.16 -98.39,-0.01 -27.17,-27.2 -27.18,-71.23 -0.01,-98.4 27.16,-27.17 71.24,-27.16 98.4,0 27.18,27.18 27.18,71.23 0,98.41zm-354.64 -354.64c-27.15,27.15 -71.21,27.16 -98.39,0 -27.17,-27.21 -27.17,-71.26 -0.02,-98.41 27.18,-27.16 71.26,-27.16 98.42,0.02 27.17,27.16 27.18,71.23 -0.01,98.39zm4233.03 3569.09c-27.17,27.19 -71.22,27.18 -98.4,0.02 -27.18,-27.18 -27.17,-71.25 -0.01,-98.4 27.18,-27.18 71.25,-27.17 98.4,-0.02 27.17,27.17 27.19,71.25 0.01,98.4zm-354.64 -354.61c-27.16,27.16 -71.22,27.16 -98.4,-0.01 -27.17,-27.18 -27.17,-71.24 -0.01,-98.4 27.18,-27.18 71.25,-27.17 98.41,0 27.18,27.18 27.18,71.23 0,98.41zm-354.64 -354.65c-27.16,27.17 -71.22,27.17 -98.41,-0.01 -27.16,-27.18 -27.16,-71.23 0.01,-98.4 27.17,-27.16 71.24,-27.16 98.4,0 27.18,27.18 27.18,71.25 0,98.41zm-354.64 -354.64c-27.17,27.17 -71.22,27.18 -98.39,0.01 -27.18,-27.19 -27.18,-71.23 -0.01,-98.4 27.17,-27.18 71.24,-27.18 98.4,-0.02 27.18,27.18 27.18,71.25 0,98.41zm-354.64 -354.63c-27.16,27.17 -71.21,27.17 -98.39,0 -27.18,-27.19 -27.18,-71.24 -0.01,-98.42 27.17,-27.15 71.24,-27.15 98.4,0.01 27.18,27.19 27.17,71.24 0,98.41zm-354.64 -354.64c-27.15,27.18 -71.21,27.16 -98.39,-0.01 -27.18,-27.17 -27.18,-71.22 -0.01,-98.4 27.16,-27.18 71.24,-27.17 98.4,0 27.18,27.18 27.18,71.23 0,98.41zm-354.63 -354.65c-27.14,27.17 -71.22,27.17 -98.4,0.01 -27.17,-27.18 -27.17,-71.24 -0.01,-98.39 27.18,-27.19 71.25,-27.17 98.41,-0.03 27.18,27.18 27.18,71.25 0,98.41zm-354.64 -354.62c-27.16,27.16 -71.22,27.16 -98.4,-0.01 -27.17,-27.19 -27.17,-71.24 -0.01,-98.4 27.18,-27.18 71.25,-27.17 98.41,0 27.19,27.18 27.19,71.23 0,98.41zm-354.64 -354.65c-27.16,27.18 -71.22,27.17 -98.41,0.01 -27.16,-27.2 -27.16,-71.25 0,-98.43 27.18,-27.15 71.25,-27.15 98.41,0.01 27.18,27.18 27.18,71.25 0,98.41zm-354.64 -354.64c-27.16,27.19 -71.22,27.18 -98.39,0.01 -27.18,-27.19 -27.18,-71.24 -0.01,-98.41 27.17,-27.17 71.24,-27.16 98.4,-0.01 27.18,27.18 27.18,71.25 0,98.41zm-354.64 -354.63c-27.16,27.16 -71.21,27.16 -98.39,-0.01 -27.18,-27.2 -27.18,-71.23 -0.01,-98.4 27.17,-27.17 71.24,-27.16 98.4,0 27.18,27.18 27.18,71.25 0,98.41zm-354.64 -354.63c-27.16,27.17 -71.2,27.15 -98.38,-0.01 -27.19,-27.18 -27.19,-71.23 -0.02,-98.41 27.17,-27.18 71.24,-27.18 98.4,0 27.18,27.18 27.18,71.23 0,98.42zm-354.63 -354.66c-27.16,27.18 -71.22,27.18 -98.39,0.01 -27.18,-27.19 -27.18,-71.25 -0.02,-98.4 27.18,-27.18 71.25,-27.17 98.42,-0.03 27.16,27.18 27.17,71.27 -0.01,98.42zm4587.65 3923.76c-27.15,27.17 -71.21,27.17 -98.39,0.01 -27.17,-27.2 -27.18,-71.26 0,-98.42 27.16,-27.17 71.23,-27.16 98.39,0.01 27.18,27.18 27.19,71.25 0,98.4zm-354.64 -354.63c-27.15,27.16 -71.21,27.16 -98.39,-0.01 -27.17,-27.19 -27.16,-71.24 -0.01,-98.4 27.17,-27.17 71.25,-27.17 98.4,0 27.18,27.18 27.18,71.24 0,98.41zm-354.63 -354.65c-27.16,27.18 -71.22,27.16 -98.4,0 -27.17,-27.18 -27.17,-71.23 -0.01,-98.39 27.18,-27.18 71.25,-27.18 98.41,-0.02 27.19,27.19 27.18,71.25 0,98.41zm-354.64 -354.63c-27.15,27.17 -71.22,27.16 -98.4,0 -27.17,-27.19 -27.18,-71.25 0.01,-98.4 27.16,-27.18 71.23,-27.17 98.39,-0.01 27.18,27.17 27.18,71.24 0,98.41zm-354.64 -354.64c-27.16,27.17 -71.21,27.16 -98.4,0 -27.18,-27.19 -27.17,-71.24 0,-98.43 27.16,-27.14 71.24,-27.14 98.4,0.02 27.18,27.18 27.18,71.23 0,98.41zm-354.64 -354.64c-27.16,27.16 -71.2,27.16 -98.39,-0.02 -27.18,-27.18 -27.18,-71.23 -0.01,-98.38 27.16,-27.18 71.24,-27.16 98.4,-0.01 27.18,27.18 27.17,71.24 0,98.41zm-354.65 -354.62c-27.14,27.16 -71.2,27.15 -98.38,-0.02 -27.17,-27.18 -27.17,-71.24 -0.01,-98.41 27.17,-27.16 71.23,-27.15 98.4,0.01 27.18,27.18 27.18,71.24 -0.01,98.42zm-354.63 -354.65c-27.15,27.17 -71.21,27.17 -98.41,-0.01 -27.15,-27.17 -27.15,-71.24 0.01,-98.4 27.17,-27.17 71.25,-27.17 98.41,0 27.18,27.18 27.15,71.24 -0.01,98.41zm-354.63 -354.65c-27.16,27.18 -71.22,27.17 -98.39,0 -27.2,-27.18 -27.18,-71.23 -0.02,-98.39 27.18,-27.18 71.25,-27.18 98.41,-0.02 27.18,27.18 27.18,71.25 0,98.41zm-354.65 -354.63c-27.15,27.17 -71.21,27.16 -98.39,0 -27.17,-27.18 -27.17,-71.24 0.01,-98.41 27.16,-27.17 71.23,-27.17 98.39,0.01 27.18,27.17 27.18,71.23 -0.01,98.4zm-354.63 -354.65c-27.16,27.18 -71.21,27.17 -98.4,0 -27.17,-27.18 -27.17,-71.23 0,-98.4 27.16,-27.18 71.24,-27.17 98.4,0 27.18,27.17 27.18,71.24 0,98.4zm-354.64 -354.63c-27.16,27.16 -71.21,27.17 -98.4,-0.02 -27.17,-27.18 -27.17,-71.23 0,-98.38 27.16,-27.18 71.24,-27.16 98.4,-0.01 27.18,27.18 27.17,71.24 0,98.41zm-354.64 -354.63c-27.15,27.17 -71.21,27.16 -98.39,-0.01 -27.17,-27.18 -27.17,-71.23 -0.02,-98.41 27.18,-27.16 71.26,-27.15 98.4,0.01 27.19,27.18 27.2,71.24 0.01,98.41zm4587.65 3923.74c-27.14,27.18 -71.2,27.16 -98.38,0.01 -27.18,-27.18 -27.18,-71.23 -0.01,-98.42 27.17,-27.16 71.23,-27.16 98.4,0 27.17,27.18 27.19,71.25 -0.01,98.41zm-354.63 -354.64c-27.16,27.18 -71.19,27.16 -98.39,-0.01 -27.18,-27.17 -27.18,-71.22 -0.01,-98.39 27.17,-27.16 71.25,-27.16 98.4,-0.01 27.18,27.19 27.17,71.25 0,98.41zm-354.64 -354.64c-27.14,27.17 -71.21,27.17 -98.39,0 -27.17,-27.2 -27.17,-71.23 -0.02,-98.4 27.18,-27.18 71.26,-27.16 98.41,-0.01 27.19,27.19 27.18,71.24 0,98.41zm-354.62 -354.63c-27.17,27.17 -71.23,27.16 -98.41,0 -27.17,-27.19 -27.17,-71.23 -0.01,-98.4 27.18,-27.17 71.25,-27.17 98.42,-0.01 27.17,27.18 27.17,71.24 0,98.41zm-354.65 -354.64c-27.16,27.17 -71.23,27.18 -98.4,0 -27.18,-27.18 -27.17,-71.24 -0.01,-98.4 27.18,-27.18 71.25,-27.17 98.41,-0.01 27.18,27.18 27.18,71.24 0,98.41zm-354.64 -354.64c-27.16,27.17 -71.22,27.16 -98.4,0.01 -27.18,-27.2 -27.17,-71.25 0,-98.41 27.17,-27.18 71.24,-27.17 98.4,-0.01 27.18,27.18 27.18,71.24 0,98.41zm-354.63 -354.62c-27.17,27.16 -71.22,27.15 -98.4,-0.01 -27.18,-27.19 -27.18,-71.25 0,-98.41 27.16,-27.16 71.23,-27.17 98.39,-0.01 27.18,27.18 27.18,71.25 0.01,98.43zm-354.65 -354.65c-27.16,27.16 -71.21,27.17 -98.39,-0.01 -27.18,-27.18 -27.18,-71.22 -0.01,-98.4 27.17,-27.18 71.25,-27.16 98.4,0 27.18,27.18 27.18,71.24 0,98.41zm-354.64 -354.64c-27.14,27.15 -71.21,27.16 -98.39,0 -27.17,-27.21 -27.17,-71.26 -0.02,-98.41 27.18,-27.18 71.26,-27.16 98.41,0 27.18,27.18 27.19,71.25 0,98.41zm-354.63 -354.64c-27.16,27.17 -71.22,27.16 -98.4,0 -27.18,-27.2 -27.16,-71.24 0,-98.4 27.17,-27.18 71.24,-27.17 98.4,-0.01 27.18,27.18 27.18,71.24 0,98.41zm-354.64 -354.64c-27.16,27.17 -71.21,27.17 -98.4,-0.01 -27.17,-27.18 -27.17,-71.23 0,-98.38 27.18,-27.19 71.24,-27.18 98.4,-0.02 27.18,27.18 27.18,71.24 0,98.41zm-354.64 -354.64c-27.17,27.18 -71.22,27.17 -98.4,0.01 -27.18,-27.18 -27.18,-71.25 0,-98.41 27.17,-27.18 71.24,-27.17 98.41,-0.02 27.16,27.19 27.17,71.25 -0.01,98.42zm-354.65 -354.64c-27.15,27.18 -71.2,27.15 -98.38,0 -27.18,-27.17 -27.18,-71.23 -0.01,-98.4 27.17,-27.17 71.25,-27.16 98.39,-0.01 27.18,27.16 27.19,71.25 0,98.41zm4587.67 3923.75c-27.16,27.18 -71.22,27.16 -98.39,0 -27.18,-27.18 -27.18,-71.23 -0.01,-98.39 27.17,-27.18 71.24,-27.18 98.4,-0.01 27.18,27.17 27.18,71.24 0,98.4zm-354.64 -354.64c-27.16,27.18 -71.21,27.18 -98.39,0 -27.18,-27.18 -27.18,-71.23 -0.02,-98.4 27.18,-27.17 71.25,-27.16 98.41,-0.01 27.19,27.18 27.18,71.25 0,98.41zm-354.63 -354.62c-27.17,27.17 -71.22,27.15 -98.4,-0.01 -27.18,-27.18 -27.18,-71.25 -0.02,-98.4 27.19,-27.19 71.25,-27.18 98.41,-0.01 27.18,27.18 27.18,71.23 0.01,98.42zm-354.64 -354.66c-27.16,27.18 -71.22,27.17 -98.4,0.02 -27.17,-27.2 -27.17,-71.24 -0.01,-98.41 27.18,-27.18 71.25,-27.18 98.41,-0.02 27.18,27.18 27.18,71.25 0,98.41zm-354.64 -354.61c-27.16,27.15 -71.22,27.15 -98.39,-0.02 -27.18,-27.18 -27.18,-71.24 -0.02,-98.4 27.18,-27.18 71.25,-27.17 98.41,0 27.18,27.18 27.18,71.23 0,98.42zm-354.64 -354.66c-27.16,27.17 -71.22,27.17 -98.4,-0.01 -27.17,-27.18 -27.17,-71.23 0,-98.41 27.16,-27.15 71.24,-27.15 98.4,0.01 27.18,27.18 27.18,71.25 0,98.41zm-354.64 -354.65c-27.16,27.19 -71.22,27.17 -98.39,0.02 -27.18,-27.19 -27.18,-71.24 -0.01,-98.41 27.17,-27.17 71.24,-27.18 98.4,-0.01 27.18,27.18 27.18,71.25 0,98.4zm-354.64 -354.62c-27.16,27.16 -71.21,27.17 -98.39,0 -27.18,-27.2 -27.18,-71.24 -0.01,-98.41 27.17,-27.17 71.24,-27.16 98.4,0 27.18,27.18 27.18,71.24 0,98.41zm-354.64 -354.64c-27.15,27.18 -71.21,27.16 -98.39,0 -27.18,-27.18 -27.18,-71.23 -0.01,-98.41 27.16,-27.18 71.25,-27.17 98.4,0 27.18,27.18 27.19,71.24 0,98.41zm-354.63 -354.66c-27.16,27.19 -71.22,27.19 -98.4,0.02 -27.17,-27.19 -27.17,-71.24 -0.01,-98.4 27.18,-27.18 71.25,-27.16 98.41,-0.02 27.18,27.18 27.18,71.25 0,98.4zm-354.65 -354.62c-27.15,27.17 -71.21,27.17 -98.39,0 -27.17,-27.19 -27.17,-71.24 -0.02,-98.4 27.19,-27.18 71.26,-27.17 98.42,-0.01 27.19,27.18 27.18,71.24 -0.01,98.41zm-354.63 -354.64c-27.16,27.18 -71.22,27.17 -98.41,0 -27.16,-27.18 -27.16,-71.24 0.01,-98.42 27.16,-27.14 71.24,-27.14 98.41,0.01 27.17,27.18 27.16,71.25 -0.01,98.41zm-354.64 -354.64c-27.16,27.18 -71.22,27.18 -98.39,0.01 -27.18,-27.19 -27.18,-71.24 0,-98.41 27.16,-27.17 71.23,-27.17 98.39,-0.01 27.18,27.18 27.17,71.25 0,98.41zm4587.66 3923.75c-27.16,27.18 -71.22,27.17 -98.4,0.01 -27.17,-27.2 -27.17,-71.24 0,-98.4 27.17,-27.18 71.24,-27.17 98.4,-0.03 27.17,27.2 27.18,71.26 0,98.42zm-354.64 -354.63c-27.16,27.17 -71.21,27.16 -98.4,0 -27.17,-27.2 -27.17,-71.24 0,-98.41 27.17,-27.17 71.24,-27.16 98.4,0 27.18,27.18 27.18,71.24 0,98.41zm-354.64 -354.64c-27.16,27.16 -71.2,27.17 -98.39,-0.01 -27.18,-27.19 -27.18,-71.23 -0.01,-98.39 27.17,-27.18 71.24,-27.18 98.4,-0.01 27.18,27.18 27.17,71.25 0,98.41zm-354.64 -354.63c-27.14,27.17 -71.21,27.16 -98.39,-0.01 -27.17,-27.19 -27.18,-71.24 -0.01,-98.4 27.17,-27.17 71.24,-27.16 98.4,0 27.18,27.18 27.18,71.24 0,98.41zm-354.64 -354.63c-27.15,27.15 -71.21,27.15 -98.39,-0.02 -27.18,-27.19 -27.18,-71.23 -0.02,-98.4 27.19,-27.17 71.26,-27.17 98.41,0 27.19,27.18 27.18,71.24 0,98.42zm-354.63 -354.66c-27.16,27.18 -71.22,27.17 -98.41,0.01 -27.17,-27.19 -27.15,-71.24 0,-98.4 27.18,-27.17 71.25,-27.18 98.41,-0.02 27.18,27.18 27.19,71.25 0,98.41zm-354.64 -354.63c-27.15,27.17 -71.22,27.16 -98.4,0 -27.18,-27.18 -27.17,-71.24 0,-98.41 27.17,-27.17 71.24,-27.16 98.4,-0.01 27.18,27.18 27.18,71.25 0,98.42zm-354.64 -354.64c-27.16,27.17 -71.21,27.16 -98.4,-0.01 -27.17,-27.18 -27.17,-71.23 0,-98.4 27.17,-27.17 71.24,-27.16 98.4,0 27.18,27.18 27.18,71.24 0,98.41zm-354.64 -354.64c-27.16,27.16 -71.21,27.16 -98.4,-0.02 -27.17,-27.18 -27.17,-71.23 0,-98.38 27.16,-27.18 71.24,-27.16 98.4,-0.01 27.18,27.18 27.17,71.24 0,98.41zm-354.64 -354.63c-27.15,27.16 -71.21,27.15 -98.39,-0.01 -27.17,-27.19 -27.17,-71.23 -0.01,-98.4 27.18,-27.17 71.25,-27.16 98.4,0 27.18,27.18 27.19,71.24 0,98.41zm-354.63 -354.64c-27.16,27.16 -71.22,27.16 -98.4,-0.01 -27.17,-27.19 -27.17,-71.24 -0.01,-98.4 27.18,-27.17 71.25,-27.16 98.42,0 27.17,27.17 27.17,71.24 -0.01,98.41zm-354.64 -354.65c-27.16,27.18 -71.21,27.17 -98.42,0.01 -27.15,-27.19 -27.15,-71.24 0.01,-98.4 27.18,-27.19 71.25,-27.18 98.41,-0.02 27.17,27.18 27.18,71.25 0,98.41zm-354.64 -354.63c-27.16,27.17 -71.22,27.15 -98.4,0 -27.17,-27.19 -27.17,-71.24 0,-98.41 27.17,-27.17 71.24,-27.16 98.4,0 27.18,27.18 27.17,71.24 0,98.41zm-1376.5 9887.92c-27.16,27.17 -71.21,27.16 -98.39,0 -27.18,-27.2 -27.18,-71.24 -0.02,-98.4 27.18,-27.18 71.25,-27.17 98.4,-0.01 27.19,27.18 27.2,71.24 0.01,98.41zm331.94 -331.95c-27.14,27.18 -71.21,27.16 -98.39,0 -27.17,-27.2 -27.17,-71.24 0,-98.4 27.17,-27.18 71.23,-27.17 98.39,-0.01 27.18,27.19 27.19,71.24 0,98.41zm-354.64 -354.64c-27.15,27.17 -71.2,27.18 -98.39,0 -27.17,-27.19 -27.17,-71.24 -0.01,-98.4 27.18,-27.18 71.25,-27.17 98.41,-0.01 27.18,27.18 27.18,71.24 -0.01,98.41zm686.61 22.69c-27.17,27.18 -71.22,27.17 -98.39,0 -27.18,-27.19 -27.18,-71.24 -0.01,-98.4 27.16,-27.17 71.23,-27.17 98.39,-0.01 27.19,27.17 27.18,71.27 0.01,98.41zm-354.65 -354.64c-27.15,27.17 -71.21,27.18 -98.39,0 -27.16,-27.2 -27.17,-71.24 -0.01,-98.4 27.16,-27.17 71.25,-27.17 98.4,-0.01 27.18,27.18 27.19,71.25 0,98.41zm-354.63 -354.64c-27.16,27.18 -71.22,27.17 -98.39,0 -27.17,-27.18 -27.18,-71.23 -0.02,-98.4 27.18,-27.17 71.24,-27.17 98.42,-0.01 27.17,27.18 27.17,71.25 -0.01,98.41z"/>
  <path class="fil0" d="M29730.12 7667.87c-9.67,-3.33 -18.75,-8.85 -26.46,-16.56 -27.18,-27.19 -27.17,-71.23 -0.01,-98.41 7.72,-7.72 16.8,-13.23 26.47,-16.56l0 131.54zm-282.7 -371.21c-27.16,27.17 -71.22,27.16 -98.4,0 -27.17,-27.19 -27.17,-71.24 -0.01,-98.41 27.18,-27.18 71.25,-27.16 98.41,0 27.18,27.18 27.18,71.23 0,98.41zm-354.64 -354.64c-27.16,27.17 -71.22,27.17 -98.4,0 -27.17,-27.19 -27.17,-71.24 0,-98.41 27.17,-27.17 71.24,-27.16 98.4,0 27.18,27.18 27.18,71.25 0,98.41zm-354.64 -354.64c-27.16,27.17 -71.23,27.16 -98.4,0 -27.17,-27.19 -27.17,-71.24 -0.01,-98.4 27.18,-27.18 71.25,-27.17 98.41,-0.01 27.18,27.18 27.18,71.25 0,98.41zm-354.64 -354.64c-27.17,27.17 -71.21,27.18 -98.39,0 -27.18,-27.18 -27.18,-71.23 -0.01,-98.4 27.17,-27.17 71.24,-27.17 98.4,-0.01 27.18,27.18 27.17,71.24 0,98.41zm-354.64 -354.64c-27.15,27.18 -71.22,27.17 -98.39,0.01 -27.17,-27.19 -27.17,-71.25 -0.01,-98.41 27.17,-27.16 71.25,-27.17 98.4,-0.01 27.18,27.18 27.17,71.26 0,98.41zm-354.63 -354.64c-27.17,27.18 -71.22,27.17 -98.4,0.01 -27.18,-27.19 -27.18,-71.24 -0.01,-98.41 27.17,-27.17 71.25,-27.17 98.41,-0.01 27.18,27.18 27.17,71.25 0,98.41zm-354.65 -354.63c-27.15,27.17 -71.21,27.16 -98.39,0 -27.17,-27.19 -27.17,-71.24 -0.01,-98.41 27.18,-27.18 71.25,-27.16 98.4,0 27.18,27.18 27.19,71.23 0,98.41zm-354.63 -354.64c-27.16,27.17 -71.22,27.17 -98.4,0 -27.17,-27.19 -27.17,-71.24 0,-98.41 27.17,-27.17 71.24,-27.16 98.4,0 27.18,27.18 27.18,71.24 0,98.41zm-354.64 -354.64c-27.16,27.17 -71.23,27.16 -98.4,0 -27.17,-27.19 -27.17,-71.24 -0.01,-98.4 27.18,-27.17 71.25,-27.17 98.41,-0.01 27.18,27.18 27.18,71.25 0,98.41zm3119.85 2525.57c-17.79,-0.02 -35.58,-6.82 -49.15,-20.38 -27.17,-27.2 -27.17,-71.25 -0.01,-98.4 13.57,-13.58 31.37,-20.38 49.16,-20.39l0 139.17zm-305.4 -375.02c-27.15,27.18 -71.21,27.17 -98.39,0 -27.17,-27.18 -27.17,-71.23 -0.01,-98.39 27.18,-27.18 71.25,-27.18 98.4,-0.02 27.18,27.18 27.19,71.25 0,98.41zm-354.63 -354.64c-27.16,27.18 -71.22,27.17 -98.4,0 -27.17,-27.18 -27.17,-71.23 -0.01,-98.4 27.18,-27.17 71.25,-27.17 98.41,-0.01 27.18,27.18 27.18,71.25 0,98.41zm-354.64 -354.64c-27.18,27.19 -71.22,27.17 -98.41,0.01 -27.16,-27.19 -27.16,-71.24 0,-98.41 27.18,-27.17 71.25,-27.16 98.41,-0.01 27.18,27.18 27.18,71.25 0,98.41zm-354.64 -354.63c-27.17,27.18 -71.21,27.15 -98.39,-0.01 -27.18,-27.18 -27.18,-71.22 -0.01,-98.4 27.17,-27.17 71.23,-27.17 98.4,0 27.18,27.18 27.18,71.24 0,98.41zm-354.64 -354.63c-27.16,27.16 -71.21,27.16 -98.39,-0.01 -27.18,-27.19 -27.18,-71.24 -0.01,-98.41 27.17,-27.17 71.25,-27.15 98.4,0.01 27.18,27.18 27.18,71.23 0,98.41zm-354.64 -354.65c-27.15,27.17 -71.21,27.17 -98.39,0 -27.17,-27.19 -27.17,-71.25 -0.01,-98.4 27.17,-27.17 71.24,-27.17 98.4,-0.01 27.18,27.18 27.18,71.25 0,98.41zm-354.64 -354.64c-27.15,27.17 -71.21,27.17 -98.39,0 -27.17,-27.19 -27.17,-71.24 -0.02,-98.39 27.18,-27.18 71.26,-27.18 98.41,-0.02 27.18,27.18 27.18,71.25 0,98.41zm-354.63 -354.64c-27.16,27.18 -71.22,27.17 -98.4,0 -27.17,-27.18 -27.17,-71.23 -0.01,-98.4 27.18,-27.17 71.25,-27.17 98.41,-0.01 27.18,27.18 27.18,71.25 0,98.41zm2787.89 2167.16c-24.34,8.36 -52.4,2.81 -71.84,-16.61 -27.17,-27.18 -27.17,-71.23 -0.01,-98.4 19.44,-19.44 47.51,-24.96 71.85,-16.61l0 131.63zm-328.08 -371.25c-27.16,27.17 -71.22,27.16 -98.4,-0.01 -27.17,-27.18 -27.17,-71.23 -0.01,-98.4 27.17,-27.17 71.25,-27.16 98.41,0 27.18,27.18 27.17,71.24 0,98.41zm-354.64 -354.64c-27.16,27.17 -71.22,27.16 -98.4,0 -27.17,-27.19 -27.17,-71.24 -0.01,-98.41 27.18,-27.17 71.25,-27.16 98.41,0 27.18,27.18 27.18,71.24 0,98.41zm-354.64 -354.64c-27.16,27.17 -71.23,27.17 -98.4,0.01 -27.17,-27.2 -27.17,-71.25 0,-98.41 27.17,-27.18 71.24,-27.17 98.4,-0.01 27.18,27.18 27.18,71.24 0,98.41zm-354.64 -354.64c-27.16,27.17 -71.21,27.17 -98.4,0 -27.17,-27.19 -27.17,-71.24 0,-98.4 27.17,-27.18 71.24,-27.17 98.4,-0.01 27.18,27.18 27.18,71.24 0,98.41zm-354.64 -354.64c-27.16,27.18 -71.21,27.17 -98.39,0 -27.18,-27.18 -27.18,-71.23 -0.01,-98.4 27.17,-27.18 71.24,-27.18 98.4,-0.01 27.18,27.18 27.17,71.24 0,98.41zm-354.64 -354.64c-27.16,27.18 -71.21,27.17 -98.39,0 -27.18,-27.18 -27.18,-71.23 -0.01,-98.4 27.18,-27.18 71.25,-27.16 98.4,-0.01 27.18,27.18 27.19,71.24 0,98.41zm-354.63 -354.63c-27.16,27.17 -71.22,27.16 -98.4,-0.01 -27.17,-27.18 -27.17,-71.23 -0.01,-98.4 27.17,-27.17 71.25,-27.16 98.41,0 27.18,27.18 27.17,71.24 0,98.41zm2455.94 1799.48c-27.33,23.53 -68.6,22.33 -94.53,-3.58 -27.18,-27.19 -27.18,-71.24 -0.01,-98.41 25.91,-25.91 67.21,-27.12 94.54,-3.61l0 105.61zm-350.78 -358.23c-27.15,27.17 -71.21,27.16 -98.39,0 -27.17,-27.19 -27.17,-71.24 -0.02,-98.4 27.18,-27.18 71.26,-27.17 98.42,-0.02 27.18,27.18 27.17,71.25 -0.01,98.42zm-354.63 -354.64c-27.16,27.17 -71.22,27.16 -98.4,0 -27.17,-27.19 -27.17,-71.24 0,-98.41 27.17,-27.17 71.24,-27.16 98.4,0 27.18,27.18 27.18,71.24 0,98.41zm-354.64 -354.64c-27.16,27.17 -71.21,27.16 -98.4,0 -27.17,-27.19 -27.17,-71.24 -0.01,-98.4 27.18,-27.18 71.25,-27.17 98.41,-0.01 27.18,27.18 27.18,71.25 0,98.41zm-354.64 -354.64c-27.17,27.17 -71.22,27.17 -98.39,0 -27.19,-27.19 -27.18,-71.23 -0.01,-98.4 27.17,-27.17 71.23,-27.16 98.4,-0.01 27.18,27.18 27.17,71.24 0,98.41zm-354.65 -354.63c-27.14,27.17 -71.2,27.16 -98.38,-0.01 -27.17,-27.18 -27.17,-71.24 -0.01,-98.4 27.16,-27.16 71.25,-27.17 98.39,0 27.18,27.18 27.18,71.25 0,98.41zm-354.62 -354.65c-27.17,27.18 -71.22,27.17 -98.4,0.01 -27.18,-27.19 -27.18,-71.24 -0.01,-98.41 27.17,-27.17 71.25,-27.17 98.41,-0.01 27.18,27.18 27.17,71.25 0,98.41zm2105.16 1441.27c-27.15,27.16 -71.21,27.16 -98.39,0 -27.17,-27.2 -27.17,-71.25 -0.01,-98.4 27.17,-27.18 71.24,-27.17 98.41,0 9.82,9.82 16.09,21.85 18.82,34.48l0 29.42c-2.72,12.64 -9,24.68 -18.83,34.51zm-354.64 -354.64c-27.15,27.17 -71.21,27.17 -98.39,0 -27.17,-27.19 -27.17,-71.23 -0.01,-98.39 27.18,-27.18 71.25,-27.18 98.4,-0.02 27.18,27.18 27.18,71.24 0,98.41zm-354.63 -354.64c-27.16,27.18 -71.22,27.18 -98.4,0 -27.17,-27.18 -27.17,-71.23 -0.01,-98.4 27.18,-27.17 71.25,-27.17 98.41,-0.01 27.18,27.18 27.18,71.25 0,98.41zm-354.64 -354.64c-27.17,27.17 -71.22,27.17 -98.4,0.01 -27.18,-27.2 -27.17,-71.24 0,-98.41 27.17,-27.17 71.24,-27.16 98.4,-0.01 27.18,27.18 27.18,71.25 0,98.41zm-354.64 -354.63c-27.17,27.18 -71.21,27.15 -98.4,0 -27.18,-27.18 -27.18,-71.23 0,-98.41 27.17,-27.17 71.23,-27.17 98.4,0 27.18,27.18 27.18,71.24 0,98.41zm-354.64 -354.63c-27.16,27.16 -71.21,27.16 -98.39,-0.01 -27.18,-27.19 -27.18,-71.24 -0.01,-98.41 27.17,-27.17 71.25,-27.15 98.4,0.01 27.18,27.18 27.18,71.23 0,98.41zm1750.53 1086.6c-27.17,27.18 -71.22,27.17 -98.4,0 -27.18,-27.18 -27.17,-71.23 -0.01,-98.4 27.18,-27.18 71.25,-27.17 98.41,-0.02 27.18,27.18 27.18,71.25 0,98.42zm-354.64 -354.63c-27.16,27.17 -71.22,27.16 -98.4,-0.01 -27.17,-27.18 -27.17,-71.23 -0.01,-98.4 27.17,-27.17 71.25,-27.17 98.41,0 27.18,27.18 27.18,71.24 0,98.41zm-354.64 -354.64c-27.16,27.17 -71.22,27.16 -98.41,-0.01 -27.16,-27.18 -27.16,-71.23 0.01,-98.4 27.17,-27.17 71.24,-27.16 98.4,0 27.18,27.18 27.18,71.24 0,98.41zm-354.64 -354.64c-27.16,27.17 -71.22,27.16 -98.39,0 -27.18,-27.19 -27.18,-71.24 -0.01,-98.41 27.17,-27.17 71.24,-27.16 98.4,0 27.18,27.18 27.18,71.24 0,98.41zm-354.64 -354.64c-27.16,27.17 -71.21,27.17 -98.4,0 -27.17,-27.19 -27.17,-71.24 0,-98.4 27.17,-27.18 71.24,-27.17 98.4,-0.01 27.18,27.18 27.18,71.24 0,98.41zm1395.89 731.98c-27.17,27.17 -71.22,27.16 -98.4,0 -27.18,-27.19 -27.18,-71.24 -0.01,-98.41 27.17,-27.17 71.24,-27.16 98.41,0 27.18,27.18 27.17,71.24 0,98.41zm-354.64 -354.64c-27.16,27.17 -71.22,27.16 -98.4,0 -27.17,-27.19 -27.17,-71.24 -0.02,-98.4 27.18,-27.18 71.26,-27.17 98.42,-0.01 27.18,27.18 27.18,71.24 0,98.41zm-354.64 -354.64c-27.16,27.17 -71.22,27.16 -98.4,0 -27.17,-27.19 -27.17,-71.24 -0.01,-98.4 27.18,-27.18 71.25,-27.17 98.41,-0.01 27.18,27.18 27.18,71.24 0,98.41zm-354.64 -354.64c-27.16,27.17 -71.21,27.16 -98.4,0 -27.17,-27.19 -27.17,-71.24 0,-98.4 27.17,-27.18 71.24,-27.17 98.4,-0.01 27.18,27.18 27.18,71.24 0,98.41zm1041.23 377.33c-27.16,27.17 -71.21,27.16 -98.39,0 -27.17,-27.2 -27.18,-71.24 -0.01,-98.4 27.18,-27.18 71.24,-27.17 98.4,-0.01 27.18,27.18 27.19,71.24 0,98.41zm-354.63 -354.64c-27.16,27.17 -71.22,27.17 -98.4,0 -27.17,-27.19 -27.17,-71.24 0,-98.4 27.17,-27.18 71.24,-27.17 98.4,-0.01 27.18,27.18 27.18,71.24 0,98.41zm-354.64 -354.64c-27.16,27.18 -71.22,27.18 -98.4,0 -27.17,-27.18 -27.17,-71.24 -0.01,-98.4 27.18,-27.17 71.25,-27.17 98.41,-0.01 27.18,27.18 27.18,71.25 0,98.41zm686.6 22.69c-27.16,27.17 -71.22,27.17 -98.4,0 -27.18,-27.18 -27.18,-71.24 -0.01,-98.4 27.18,-27.18 71.25,-27.17 98.41,-0.02 27.18,27.18 27.18,71.25 0,98.42zm-354.64 -354.63c-27.16,27.17 -71.22,27.16 -98.4,-0.01 -27.17,-27.18 -27.17,-71.23 -0.01,-98.4 27.18,-27.17 71.25,-27.17 98.41,0 27.18,27.18 27.18,71.24 0,98.41zm331.95 -331.95c-27.16,27.17 -71.22,27.16 -98.4,0 -27.18,-27.19 -27.18,-71.24 -0.01,-98.41 27.17,-27.17 71.25,-27.16 98.41,0 27.18,27.18 27.17,71.24 0,98.41z"/>
  <g id="_2879058305104">
   <polyline class="fil1 str0" points="16324.17,19127.23 25059.88,10391.53 29714.53,15046.18 "/>
   <polyline class="fil1 str0" points="22532.76,19127.23 25918.63,15740.01 29305.86,19127.23 "/>
   <polyline class="fil1 str1" points="27128.12,19127.23 23002.46,15001.57 29714.53,8289.51 "/>
  </g>
  <g id="_2879058309136">
   <polyline class="fil1 str2" points="9220.49,12.48 6254.75,2978.21 3289.02,12.48 "/>
   <polyline class="fil1 str0" points="11309.82,12.48 6161.56,5160.73 1013.33,12.48 "/>
  </g>
 </g>
</svg>
