<?xml version="1.0" encoding="UTF-8"?>
<!DOCTYPE svg PUBLIC "-//W3C//DTD SVG 1.1//EN" "http://www.w3.org/Graphics/SVG/1.1/DTD/svg11.dtd">
<!-- Creator: CorelDRAW 2019 (64-Bit) -->
<svg xmlns="http://www.w3.org/2000/svg" xml:space="preserve" width="12.103mm" height="12.103mm" version="1.1" style="shape-rendering:geometricPrecision; text-rendering:geometricPrecision; image-rendering:optimizeQuality; fill-rule:evenodd; clip-rule:evenodd"
viewBox="0 0 135.1 135.1"
 xmlns:xlink="http://www.w3.org/1999/xlink"
 xmlns:xodm="http://www.corel.com/coreldraw/odm/2003">
 <defs>
  <style type="text/css">
   <![CDATA[
    .fil0 {fill:#FEFEFE}
   ]]>
  </style>
 </defs>
 <g id="Capa_x0020_1">
  <metadata id="CorelCorpID_0Corel-Layer"/>
  <path class="fil0" d="M18.45 0l98.21 0c10.15,0 18.45,8.3 18.45,18.45l0 98.21c0,10.15 -8.3,18.45 -18.45,18.45l-98.21 0c-10.15,0 -18.45,-8.3 -18.45,-18.45l0 -98.21c0,-10.15 8.3,-18.45 18.45,-18.45zm29.7 37.2l15.82 0 0 63.46 -15.82 0 0 -22.32 -14.46 0 0 22.32 -19.33 0 0 -63.46 19.33 0 0 25.32 14.46 0 0 -25.32zm26.08 0l46.29 0 0 63.46 -46.29 0 0 -63.46z"/>
 </g>
</svg>
