<?xml version="1.0" encoding="UTF-8"?>
<!DOCTYPE svg PUBLIC "-//W3C//DTD SVG 1.1//EN" "http://www.w3.org/Graphics/SVG/1.1/DTD/svg11.dtd">
<!-- Creator: CorelDRAW 2019 (64-Bit) -->
<svg xmlns="http://www.w3.org/2000/svg" xml:space="preserve" width="11.4129mm" height="95.0454mm" version="1.1" style="shape-rendering:geometricPrecision; text-rendering:geometricPrecision; image-rendering:optimizeQuality; fill-rule:evenodd; clip-rule:evenodd"
viewBox="0 0 50.25 418.45"
 xmlns:xlink="http://www.w3.org/1999/xlink"
 xmlns:xodm="http://www.corel.com/coreldraw/odm/2003">
 <defs>
  <style type="text/css">
   <![CDATA[
    .fil0 {fill:white;fill-opacity:0.501961}
   ]]>
  </style>
 </defs>
 <g id="Capa_x0020_1">
  <metadata id="CorelCorpID_0Corel-Layer"/>
  <path class="fil0" d="M50.25 292.17c0,1.69 -1.37,3.06 -3.06,3.06 -1.69,0 -3.06,-1.37 -3.06,-3.06 -0,-1.69 1.37,-3.06 3.06,-3.06 1.69,0 3.06,1.37 3.06,3.06zm-22.06 0c0,1.69 -1.37,3.06 -3.06,3.06 -1.69,0 -3.06,-1.37 -3.06,-3.06 0,-1.69 1.37,-3.06 3.06,-3.06 1.69,0 3.06,1.37 3.06,3.06zm-22.06 0c0,1.69 -1.37,3.06 -3.06,3.06 -1.69,-0 -3.06,-1.37 -3.06,-3.06 0,-1.69 1.37,-3.06 3.06,-3.06 1.69,0 3.06,1.37 3.06,3.06zm44.12 -20.65c0,1.69 -1.37,3.06 -3.06,3.06 -1.69,-0 -3.06,-1.37 -3.06,-3.06 -0,-1.69 1.37,-3.06 3.06,-3.06 1.69,0 3.06,1.37 3.06,3.06zm-22.06 0c0,1.69 -1.37,3.06 -3.06,3.06 -1.69,-0 -3.06,-1.37 -3.06,-3.06 0,-1.69 1.37,-3.06 3.06,-3.06 1.69,0 3.06,1.37 3.06,3.06zm-22.06 0c0,1.69 -1.37,3.06 -3.06,3.06 -1.69,0 -3.06,-1.37 -3.06,-3.06 0,-1.69 1.37,-3.06 3.06,-3.06 1.69,0 3.06,1.37 3.06,3.06zm44.12 -20.65c0,1.69 -1.37,3.06 -3.06,3.06 -1.69,-0 -3.06,-1.37 -3.06,-3.06 0,-1.69 1.37,-3.06 3.06,-3.06 1.69,0 3.06,1.37 3.06,3.06zm-22.06 0c0,1.69 -1.37,3.06 -3.06,3.06 -1.69,-0 -3.06,-1.37 -3.06,-3.06 0,-1.69 1.37,-3.06 3.06,-3.06 1.69,0 3.06,1.37 3.06,3.06zm-22.06 0c0,1.69 -1.37,3.06 -3.06,3.06 -1.69,-0 -3.06,-1.37 -3.06,-3.06 0,-1.69 1.37,-3.06 3.06,-3.06 1.69,0 3.06,1.37 3.06,3.06zm44.12 -20.65c0,1.69 -1.37,3.06 -3.06,3.06 -1.69,-0 -3.06,-1.37 -3.06,-3.06 0,-1.69 1.37,-3.06 3.06,-3.06 1.69,0 3.06,1.37 3.06,3.06zm-22.06 -0c0,1.69 -1.37,3.06 -3.06,3.06 -1.69,-0 -3.06,-1.37 -3.06,-3.06 0,-1.69 1.37,-3.06 3.06,-3.06 1.69,0 3.06,1.37 3.06,3.06zm-22.06 0c0,1.69 -1.37,3.06 -3.06,3.06 -1.69,0 -3.06,-1.37 -3.06,-3.06 0,-1.69 1.37,-3.06 3.06,-3.06 1.69,0 3.06,1.37 3.06,3.06zm44.12 -20.65c0,1.69 -1.37,3.06 -3.06,3.06 -1.69,-0 -3.06,-1.37 -3.06,-3.06 0,-1.69 1.37,-3.06 3.06,-3.06 1.69,0 3.06,1.37 3.06,3.06zm-22.06 0c0,1.69 -1.37,3.06 -3.06,3.06 -1.69,-0 -3.06,-1.37 -3.06,-3.06 0,-1.69 1.37,-3.06 3.06,-3.06 1.69,0 3.06,1.37 3.06,3.06zm-22.06 0c0,1.69 -1.37,3.06 -3.06,3.06 -1.69,-0 -3.06,-1.37 -3.06,-3.06 0,-1.69 1.37,-3.06 3.06,-3.06 1.69,0 3.06,1.37 3.06,3.06zm44.12 -20.65c0,1.69 -1.37,3.06 -3.06,3.06 -1.69,0 -3.06,-1.37 -3.06,-3.06 -0,-1.69 1.37,-3.06 3.06,-3.06 1.69,0 3.06,1.37 3.06,3.06zm-22.06 -0c0,1.69 -1.37,3.06 -3.06,3.06 -1.69,0 -3.06,-1.37 -3.06,-3.06 0,-1.69 1.37,-3.06 3.06,-3.06 1.69,0 3.06,1.37 3.06,3.06zm-22.06 0c0,1.69 -1.37,3.06 -3.06,3.06 -1.69,-0 -3.06,-1.37 -3.06,-3.06 0,-1.69 1.37,-3.06 3.06,-3.06 1.69,0 3.06,1.37 3.06,3.06zm44.12 -20.65c0,1.69 -1.37,3.06 -3.06,3.06 -1.69,0 -3.06,-1.37 -3.06,-3.06 0,-1.69 1.37,-3.06 3.06,-3.06 1.69,0 3.06,1.37 3.06,3.06zm-22.06 0c0,1.69 -1.37,3.06 -3.06,3.06 -1.69,0 -3.06,-1.37 -3.06,-3.06 0,-1.69 1.37,-3.06 3.06,-3.06 1.69,0 3.06,1.37 3.06,3.06zm-22.06 0c0,1.69 -1.37,3.06 -3.06,3.06 -1.69,-0 -3.06,-1.37 -3.06,-3.06 0,-1.69 1.37,-3.06 3.06,-3.06 1.69,-0 3.06,1.37 3.06,3.06zm44.12 -20.65c0,1.69 -1.37,3.06 -3.06,3.06 -1.69,-0 -3.06,-1.37 -3.06,-3.06 -0,-1.69 1.37,-3.06 3.06,-3.06 1.69,0 3.06,1.37 3.06,3.06zm-22.06 0c0,1.69 -1.37,3.06 -3.06,3.06 -1.69,-0 -3.06,-1.37 -3.06,-3.06 0,-1.69 1.37,-3.06 3.06,-3.06 1.69,0 3.06,1.37 3.06,3.06zm-22.06 0c0,1.69 -1.37,3.06 -3.06,3.06 -1.69,0 -3.06,-1.37 -3.06,-3.06 0,-1.69 1.37,-3.06 3.06,-3.06 1.69,0 3.06,1.37 3.06,3.06zm44.12 -20.65c0,1.69 -1.37,3.06 -3.06,3.06 -1.69,-0 -3.06,-1.37 -3.06,-3.06 0,-1.69 1.37,-3.06 3.06,-3.06 1.69,0 3.06,1.37 3.06,3.06zm-22.06 0c0,1.69 -1.37,3.06 -3.06,3.06 -1.69,-0 -3.06,-1.37 -3.06,-3.06 0,-1.69 1.37,-3.06 3.06,-3.06 1.69,0 3.06,1.37 3.06,3.06zm-22.06 0c0,1.69 -1.37,3.06 -3.06,3.06 -1.69,0 -3.06,-1.37 -3.06,-3.06 0,-1.69 1.37,-3.06 3.06,-3.06 1.69,0 3.06,1.37 3.06,3.06zm44.12 -20.65c0,1.69 -1.37,3.06 -3.06,3.06 -1.69,-0 -3.06,-1.37 -3.06,-3.06 0,-1.69 1.37,-3.06 3.06,-3.06 1.69,0 3.06,1.37 3.06,3.06zm-22.06 0c0,1.69 -1.37,3.06 -3.06,3.06 -1.69,-0 -3.06,-1.37 -3.06,-3.06 0,-1.69 1.37,-3.06 3.06,-3.06 1.69,0 3.06,1.37 3.06,3.06zm-22.06 0c0,1.69 -1.37,3.06 -3.06,3.06 -1.69,-0 -3.06,-1.37 -3.06,-3.06 0,-1.69 1.37,-3.06 3.06,-3.06 1.69,0 3.06,1.37 3.06,3.06zm44.12 -20.65c0,1.69 -1.37,3.06 -3.06,3.06 -1.69,-0 -3.06,-1.37 -3.06,-3.06 0,-1.69 1.37,-3.06 3.06,-3.06 1.69,0 3.06,1.37 3.06,3.06zm-22.06 0c0,1.69 -1.37,3.06 -3.06,3.06 -1.69,-0 -3.06,-1.37 -3.06,-3.06 0,-1.69 1.37,-3.06 3.06,-3.06 1.69,0 3.06,1.37 3.06,3.06zm-22.06 0c0,1.69 -1.37,3.06 -3.06,3.06 -1.69,-0 -3.06,-1.37 -3.06,-3.06 0,-1.69 1.37,-3.06 3.06,-3.06 1.69,0 3.06,1.37 3.06,3.06zm44.12 -20.65c0,1.69 -1.37,3.06 -3.06,3.06 -1.69,-0 -3.06,-1.37 -3.06,-3.06 0,-1.69 1.37,-3.06 3.06,-3.06 1.69,0 3.06,1.37 3.06,3.06zm-22.06 0c0,1.69 -1.37,3.06 -3.06,3.06 -1.69,-0 -3.06,-1.37 -3.06,-3.06 0,-1.69 1.37,-3.06 3.06,-3.06 1.69,0 3.06,1.37 3.06,3.06zm-22.06 -0c0,1.69 -1.37,3.06 -3.06,3.06 -1.69,-0 -3.06,-1.37 -3.06,-3.06 0,-1.69 1.37,-3.06 3.06,-3.06 1.69,0 3.06,1.37 3.06,3.06zm44.12 -20.65c0,1.69 -1.37,3.06 -3.06,3.06 -1.69,-0 -3.06,-1.37 -3.06,-3.06 0,-1.69 1.37,-3.06 3.06,-3.06 1.69,0 3.06,1.37 3.06,3.06zm-22.06 0c0,1.69 -1.37,3.06 -3.06,3.06 -1.69,0 -3.06,-1.37 -3.06,-3.06 0,-1.69 1.37,-3.06 3.06,-3.06 1.69,0 3.06,1.37 3.06,3.06zm-22.06 0c0,1.69 -1.37,3.06 -3.06,3.06 -1.69,-0 -3.06,-1.37 -3.06,-3.06 -0,-1.69 1.37,-3.06 3.06,-3.06 1.69,0 3.06,1.37 3.06,3.06zm44.12 -20.65c0,1.69 -1.37,3.06 -3.06,3.06 -1.69,0 -3.06,-1.37 -3.06,-3.06 -0,-1.69 1.37,-3.06 3.06,-3.06 1.69,0 3.06,1.37 3.06,3.06zm-22.06 0c0,1.69 -1.37,3.06 -3.06,3.06 -1.69,0 -3.06,-1.37 -3.06,-3.06 0,-1.69 1.37,-3.06 3.06,-3.06 1.69,0 3.06,1.37 3.06,3.06zm-22.06 0c0,1.69 -1.37,3.06 -3.06,3.06 -1.69,0 -3.06,-1.37 -3.06,-3.06 0,-1.69 1.37,-3.06 3.06,-3.06 1.69,0 3.06,1.37 3.06,3.06zm44.12 -20.65c0,1.69 -1.37,3.06 -3.06,3.06 -1.69,-0 -3.06,-1.37 -3.06,-3.06 -0,-1.69 1.37,-3.06 3.06,-3.06 1.69,0 3.06,1.37 3.06,3.06zm-22.06 0c0,1.69 -1.37,3.06 -3.06,3.06 -1.69,-0 -3.06,-1.37 -3.06,-3.06 0,-1.69 1.37,-3.06 3.06,-3.06 1.69,0 3.06,1.37 3.06,3.06zm-22.06 0c0,1.69 -1.37,3.06 -3.06,3.06 -1.69,0 -3.06,-1.37 -3.06,-3.06 0,-1.69 1.37,-3.06 3.06,-3.06 1.69,0 3.06,1.37 3.06,3.06zm44.12 412.32c0,1.69 -1.37,3.06 -3.06,3.06 -1.69,0 -3.06,-1.37 -3.06,-3.06 0,-1.69 1.37,-3.06 3.06,-3.06 1.69,0 3.06,1.37 3.06,3.06zm-22.06 0c0,1.69 -1.37,3.06 -3.06,3.06 -1.69,0 -3.06,-1.37 -3.06,-3.06 0,-1.69 1.37,-3.06 3.06,-3.06 1.69,0 3.06,1.37 3.06,3.06zm-22.06 0c0,1.69 -1.37,3.06 -3.06,3.06 -1.69,-0 -3.06,-1.37 -3.06,-3.06 0,-1.69 1.37,-3.06 3.06,-3.06 1.69,-0 3.06,1.37 3.06,3.06zm44.12 -20.65c0,1.69 -1.37,3.06 -3.06,3.06 -1.69,-0 -3.06,-1.37 -3.06,-3.06 0,-1.69 1.37,-3.06 3.06,-3.06 1.69,0 3.06,1.37 3.06,3.06zm-22.06 0c0,1.69 -1.37,3.06 -3.06,3.06 -1.69,-0 -3.06,-1.37 -3.06,-3.06 0,-1.69 1.37,-3.06 3.06,-3.06 1.69,0 3.06,1.37 3.06,3.06zm-22.06 0c0,1.69 -1.37,3.06 -3.06,3.06 -1.69,-0 -3.06,-1.37 -3.06,-3.06 0,-1.69 1.37,-3.06 3.06,-3.06 1.69,0 3.06,1.37 3.06,3.06zm44.12 -20.65c0,1.69 -1.37,3.06 -3.06,3.06 -1.69,-0 -3.06,-1.37 -3.06,-3.06 0,-1.69 1.37,-3.06 3.06,-3.06 1.69,0 3.06,1.37 3.06,3.06zm-22.06 0c0,1.69 -1.37,3.06 -3.06,3.06 -1.69,-0 -3.06,-1.37 -3.06,-3.06 0,-1.69 1.37,-3.06 3.06,-3.06 1.69,0 3.06,1.37 3.06,3.06zm-22.06 -0c0,1.69 -1.37,3.06 -3.06,3.06 -1.69,-0 -3.06,-1.37 -3.06,-3.06 0,-1.69 1.37,-3.06 3.06,-3.06 1.69,0 3.06,1.37 3.06,3.06zm44.12 -20.65c0,1.69 -1.37,3.06 -3.06,3.06 -1.69,0 -3.06,-1.37 -3.06,-3.06 0,-1.69 1.37,-3.06 3.06,-3.06 1.69,0 3.06,1.37 3.06,3.06zm-22.06 0c0,1.69 -1.37,3.06 -3.06,3.06 -1.69,-0 -3.06,-1.37 -3.06,-3.06 0,-1.69 1.37,-3.06 3.06,-3.06 1.69,0 3.06,1.37 3.06,3.06zm-22.06 0c0,1.69 -1.37,3.06 -3.06,3.06 -1.69,-0 -3.06,-1.37 -3.06,-3.06 -0,-1.69 1.37,-3.06 3.06,-3.06 1.69,0 3.06,1.37 3.06,3.06zm44.12 -20.65c0,1.69 -1.37,3.06 -3.06,3.06 -1.69,-0 -3.06,-1.37 -3.06,-3.06 -0,-1.69 1.37,-3.06 3.06,-3.06 1.69,0 3.06,1.37 3.06,3.06zm-22.06 0c0,1.69 -1.37,3.06 -3.06,3.06 -1.69,-0 -3.06,-1.37 -3.06,-3.06 0,-1.69 1.37,-3.06 3.06,-3.06 1.69,0 3.06,1.37 3.06,3.06zm-22.06 0c0,1.69 -1.37,3.06 -3.06,3.06 -1.69,0 -3.06,-1.37 -3.06,-3.06 0,-1.69 1.37,-3.06 3.06,-3.06 1.69,0 3.06,1.37 3.06,3.06zm44.12 -20.65c0,1.69 -1.37,3.06 -3.06,3.06 -1.69,-0 -3.06,-1.37 -3.06,-3.06 -0,-1.69 1.37,-3.06 3.06,-3.06 1.69,0 3.06,1.37 3.06,3.06zm-22.06 0c0,1.69 -1.37,3.06 -3.06,3.06 -1.69,-0 -3.06,-1.37 -3.06,-3.06 0,-1.69 1.37,-3.06 3.06,-3.06 1.69,0 3.06,1.37 3.06,3.06zm-22.06 -0c0,1.69 -1.37,3.06 -3.06,3.06 -1.69,0 -3.06,-1.37 -3.06,-3.06 0,-1.69 1.37,-3.06 3.06,-3.06 1.69,0 3.06,1.37 3.06,3.06z"/>
 </g>
</svg>
